<?xml version="1.0" standalone="no"?>
<!DOCTYPE svg PUBLIC "-//W3C//DTD SVG 20010904//EN"
 "http://www.w3.org/TR/2001/REC-SVG-20010904/DTD/svg10.dtd">
<svg version="1.0" xmlns="http://www.w3.org/2000/svg"
 width="300.000000pt" height="206.000000pt" viewBox="0 0 300.000000 206.000000"
 preserveAspectRatio="xMidYMid meet">
<metadata>
Created by potrace 1.10, written by Peter Selinger 2001-2011
</metadata>
<g transform="translate(0.000000,206.000000) scale(0.100000,-0.100000)"
fill="#000000" stroke="none">
<path d="M2 1974 c-1 -56 1 -83 8 -79 5 3 11 3 11 -2 7 -47 6 -63 -1 -63 -6 0
20 -56 56 -125 36 -69 64 -132 60 -140 -3 -9 0 -12 10 -8 17 6 17 13 -1 37 -9
12 -15 42 -15 75 0 47 -8 69 -60 168 -56 107 -72 153 -52 153 10 0 42 -65 42
-85 0 -8 4 -15 8 -15 5 0 17 -18 27 -40 10 -22 22 -37 27 -34 5 3 8 0 6 -7 -2
-12 28 -99 34 -99 2 0 2 20 0 45 -4 39 -2 44 13 39 14 -6 16 -15 11 -48 -4
-23 -7 -48 -6 -56 0 -8 0 -26 0 -40 0 -18 3 -21 9 -12 13 21 20 -8 14 -57 -5
-36 -3 -41 14 -41 10 0 24 -5 31 -12 9 -9 12 -6 12 15 0 17 5 27 15 27 17 0
21 -25 6 -35 -6 -3 -7 -28 -4 -58 6 -48 5 -51 -11 -38 -9 7 -37 15 -63 18 -26
2 -49 6 -52 9 -10 10 16 39 39 42 l22 4 -22 15 c-20 14 -24 14 -48 -5 -15 -11
-26 -25 -24 -32 1 -6 -5 -18 -14 -27 -15 -16 -16 -13 -9 34 3 28 3 53 -2 56
-5 3 -9 -4 -10 -16 -2 -30 -14 -138 -18 -160 -5 -29 -11 -30 -29 -2 -15 22
-15 36 -5 113 15 116 16 120 35 96 17 -21 10 -7 -25 49 -27 44 -33 47 -19 9 8
-21 7 -57 -6 -141 -16 -112 -16 -114 4 -140 12 -14 37 -47 56 -73 36 -48 59
-68 30 -26 -9 12 -16 33 -16 45 0 13 -4 23 -9 23 -8 0 -3 79 5 89 7 8 121 2
148 -9 23 -8 31 -8 38 2 6 10 8 9 8 -4 0 -9 9 -20 20 -23 11 -4 18 -11 15 -16
-9 -13 -45 -11 -46 4 -2 14 -17 -77 -24 -143 -2 -25 -7 -61 -10 -80 -6 -37 -8
-131 -3 -135 2 -1 17 -5 34 -8 l31 -6 13 113 c7 63 10 121 7 130 -4 9 -2 16 3
16 6 0 10 16 10 37 0 20 2 34 5 31 3 -3 5 -48 5 -99 -3 -199 -2 -246 5 -296 4
-29 12 -50 17 -47 5 3 6 15 2 26 -3 11 -7 51 -8 88 -1 52 1 67 11 63 9 -4 11
0 7 11 -3 9 -10 16 -15 16 -5 0 -6 21 -4 48 2 26 4 55 5 64 0 10 14 25 31 34
26 13 33 14 40 2 13 -19 11 -50 -2 -42 -7 4 -10 -5 -8 -27 4 -41 -9 -101 -24
-111 -9 -6 -16 -99 -17 -220 0 -21 -4 -38 -8 -38 -5 0 -7 15 -5 33 3 31 3 31
-8 7 -14 -30 -18 -55 -24 -138 -2 -34 -7 -68 -11 -75 -4 -7 3 -3 16 8 l23 20
-12 -22 c-6 -13 -16 -23 -20 -23 -8 0 -31 -74 -31 -98 0 -5 12 -7 26 -4 23 4
25 3 14 -15 -11 -17 -34 -30 -82 -47 -33 -10 -18 -26 23 -26 l42 0 -6 -87 c-8
-116 7 -93 23 35 9 74 16 102 26 102 8 0 14 5 14 10 0 6 -4 10 -10 10 -13 0
-13 76 0 100 6 11 13 54 16 97 6 96 20 138 40 122 19 -15 18 -22 -6 -49 -29
-33 -25 -50 10 -50 26 0 29 -3 27 -29 -1 -19 -6 -26 -11 -20 -18 17 -32 9 -34
-18 -5 -53 -9 -68 -20 -68 -6 0 -14 -3 -18 -7 -4 -5 -2 -8 5 -8 7 0 9 -5 5
-12 -4 -6 -3 -8 4 -4 6 3 13 2 17 -4 3 -6 -1 -13 -9 -16 -9 -3 -16 -10 -16
-16 0 -5 4 -6 10 -3 6 4 10 -9 10 -32 0 -29 -3 -34 -10 -23 -7 11 -8 3 -4 -26
5 -35 3 -44 -16 -57 -12 -8 -24 -29 -26 -46 -5 -32 1 -37 26 -21 9 6 17 5 22
-3 5 -7 8 3 9 23 1 19 3 42 4 50 1 8 3 25 4 38 1 26 21 30 22 5 0 -15 2 -15 9
2 5 11 8 29 8 40 0 17 -1 17 -5 2 -2 -9 -11 -17 -20 -17 -13 0 -14 10 -9 68
12 120 16 133 37 127 16 -5 19 -1 19 24 0 43 27 41 33 -1 l4 -33 1 33 c1 21 7
32 17 32 19 0 19 -39 0 -64 -12 -16 -17 -17 -30 -6 -14 11 -16 11 -13 -1 2
-10 -5 -13 -22 -11 -20 2 -22 1 -10 -7 8 -6 22 -11 31 -11 14 0 15 -7 8 -42
-5 -24 -12 -79 -15 -123 -5 -55 -9 -74 -15 -60 -4 11 -8 14 -8 7 -1 -7 -5 -11
-10 -8 -5 3 -14 0 -20 -8 -9 -10 -8 -15 4 -20 8 -3 15 0 15 7 0 9 2 9 8 -1 6
-9 13 -6 28 10 14 17 19 39 20 88 2 94 6 130 15 130 5 0 6 7 3 15 -4 8 -1 15
5 15 6 0 11 7 11 15 0 8 5 15 11 15 5 0 7 -5 4 -11 -4 -5 0 -18 9 -28 9 -10
17 -36 18 -57 1 -21 6 -42 12 -46 8 -6 7 -11 -3 -17 -18 -12 -23 -40 -10 -60
8 -12 9 -8 6 16 -2 24 1 33 15 36 10 3 18 1 18 -4 0 -5 -5 -9 -11 -9 -7 0 -8
-14 -4 -40 4 -26 3 -40 -4 -40 -6 0 -11 5 -11 12 0 9 -3 8 -12 -1 -11 -11 -10
-14 0 -18 6 -3 10 -9 7 -14 -4 -5 1 -6 9 -3 11 4 16 0 16 -15 0 -14 -6 -21
-19 -21 -11 0 -28 -3 -38 -6 -11 -3 -14 -2 -7 3 14 11 25 43 15 43 -13 0 -18
79 -9 133 6 30 5 59 -1 75 -9 26 -9 26 -10 -11 -1 -26 -5 -36 -12 -31 -9 5
-10 -8 -7 -45 3 -28 1 -51 -3 -51 -5 0 -9 -5 -9 -11 0 -5 4 -8 9 -5 4 3 7 -9
7 -27 -1 -18 2 -35 7 -38 11 -8 -23 -49 -41 -49 -7 0 -11 4 -8 9 3 5 -1 11 -9
15 -16 6 -20 -10 -9 -37 3 -9 13 -13 26 -9 13 3 24 -1 30 -11 8 -16 11 -16 33
-1 14 9 25 21 25 28 0 6 14 11 30 12 18 1 30 -4 30 -11 0 -23 94 -40 118 -22
27 21 4 77 -32 77 -9 0 -16 6 -16 14 0 8 -6 16 -12 19 -18 5 -48 -3 -48 -14 0
-11 23 -7 33 6 4 6 6 -3 4 -19 -4 -36 -33 -58 -47 -36 -5 8 -7 17 -4 21 2 4
-2 9 -8 12 -10 3 -10 9 -1 24 9 16 8 23 -5 37 -14 14 -15 20 -4 37 11 17 11
24 0 37 -8 10 -9 13 -1 9 6 -4 15 -2 19 4 5 9 0 10 -15 6 -17 -4 -21 -2 -17
10 3 8 6 17 6 19 0 2 7 4 15 4 19 0 30 -62 17 -99 -12 -34 3 -56 28 -41 8 5
18 6 24 3 5 -3 6 -1 3 4 -4 6 2 18 13 28 27 25 25 32 -9 31 -21 -1 -29 -6 -28
-18 1 -10 6 -18 12 -18 5 0 2 -5 -8 -11 -26 -15 -31 -6 -18 33 6 18 9 42 6 53
-2 11 -4 30 -4 43 -1 12 -6 22 -12 22 -5 0 -7 -5 -3 -12 4 -7 3 -8 -4 -4 -7 4
-12 14 -12 22 0 8 -5 12 -10 9 -6 -3 -10 2 -10 13 0 16 6 19 35 15 29 -3 35 0
35 16 0 16 -6 18 -42 16 -41 -3 -43 -4 -40 -31 3 -28 3 -28 -12 -9 -12 16 -14
46 -10 165 3 80 9 161 12 180 12 58 4 100 -19 100 -12 0 -19 -7 -19 -20 0 -12
7 -20 16 -20 13 0 14 -8 8 -47 -4 -27 -8 -84 -9 -128 -4 -130 -3 -125 -25
-125 -23 0 -23 1 -9 55 6 22 12 81 14 131 3 85 1 93 -21 120 -24 27 -25 28
-18 5 4 -16 3 -21 -5 -17 -20 13 -17 -63 3 -79 7 -5 13 -26 13 -45 0 -19 2
-39 4 -45 2 -5 -1 -36 -5 -67 -5 -40 -12 -58 -22 -58 -8 0 -14 8 -14 17 0 9
-7 25 -17 35 -21 24 -9 36 15 15 42 -38 33 -13 -12 32 -52 53 -55 73 -14 118
11 12 17 26 14 32 -18 28 77 143 104 126 6 -3 7 1 4 9 -3 9 -1 16 5 16 6 0 11
-12 11 -27 0 -16 5 -35 10 -43 6 -10 8 2 3 36 -5 47 -3 53 18 67 13 8 41 18
62 21 21 4 46 10 55 13 15 6 15 5 3 -10 -19 -24 -9 -21 20 4 l24 22 -50 -6
c-27 -4 -61 -9 -75 -13 -24 -5 -24 -5 6 23 78 71 114 99 120 94 4 -3 4 -1 1 6
-10 16 3 43 20 43 11 0 13 -8 9 -35 -3 -19 -2 -35 3 -35 15 0 23 18 12 25 -7
4 -7 15 -1 30 5 14 7 25 4 25 -4 0 -1 6 5 14 8 10 9 16 1 21 -6 4 -9 1 -8 -6
2 -7 -5 -15 -14 -17 -23 -5 -23 13 0 36 22 22 66 92 57 92 -3 0 0 6 7 14 11
11 15 11 25 -3 11 -14 12 -14 13 0 0 8 -5 20 -12 27 -9 9 -9 12 1 12 7 0 9 5
5 12 -5 8 -2 9 9 5 10 -3 17 -2 17 3 0 6 -7 10 -15 10 -19 0 -58 -38 -51 -49
3 -5 -4 -17 -15 -27 -20 -18 -20 -18 -13 11 3 17 12 37 19 45 6 8 25 44 42 80
44 96 54 117 49 98 -3 -10 -1 -18 4 -18 6 0 10 9 10 20 0 11 -4 20 -9 20 -5 0
-8 6 -8 13 2 25 -16 87 -25 87 -5 0 -7 4 -3 9 3 5 1 12 -4 15 -15 10 -41 -5
-41 -24 0 -13 6 -16 27 -12 22 4 25 2 19 -13 -3 -10 -1 -24 5 -31 14 -18 -6
-107 -29 -126 -14 -12 -14 -10 -3 12 l12 25 -20 -24 c-12 -12 -19 -27 -16 -31
4 -7 -25 -25 -30 -18 -5 9 18 88 24 83 5 -2 8 20 7 50 -1 66 -14 58 -23 -16
-7 -68 -20 -94 -37 -80 -8 7 -16 7 -22 1 -6 -6 -10 -2 -11 11 -2 28 -21 49
-38 43 -11 -5 -9 -11 8 -27 13 -12 21 -29 20 -38 -3 -12 2 -16 22 -14 19 3 26
-2 31 -20 6 -25 -16 -81 -45 -112 -10 -10 -24 -29 -30 -41 -7 -13 -17 -19 -23
-16 -6 4 -8 3 -5 -3 6 -10 -153 -176 -161 -168 -2 2 4 16 14 31 10 15 19 34
21 43 2 19 40 51 59 51 8 0 14 7 14 15 0 21 -12 18 -39 -10 -13 -14 -26 -24
-28 -21 -8 8 40 131 55 144 11 8 12 12 3 12 -16 0 -6 47 24 115 14 29 21 61
18 76 -3 16 1 32 10 41 12 12 13 18 4 28 -7 8 -8 10 -1 7 6 -4 24 7 41 23 29
28 43 30 43 6 0 -7 -14 -17 -30 -23 -16 -6 -30 -16 -30 -22 0 -7 10 -5 26 5
21 15 27 15 34 4 5 -8 6 -18 4 -22 -3 -4 0 -8 6 -8 11 0 8 65 -4 77 -3 3 0 13
7 21 10 13 9 14 -2 8 -9 -6 -12 -4 -9 5 3 8 11 14 19 14 8 0 13 9 12 20 -1 11
3 36 9 55 7 19 11 44 9 55 -2 16 0 18 10 8 16 -15 45 -17 54 -3 3 6 -1 7 -9 4
-9 -3 -23 2 -32 11 -20 20 -33 6 -34 -35 -1 -24 -1 -24 -15 5 -8 17 -14 23
-14 15 3 -40 -1 -43 -22 -24 -22 19 -22 19 -8 -4 13 -21 12 -25 -14 -48 -15
-13 -35 -24 -44 -24 -9 0 -13 -6 -10 -15 4 -8 2 -17 -3 -20 -6 -3 -8 28 -6 78
3 62 1 84 -8 84 -9 0 -12 -15 -9 -51 4 -48 3 -50 -12 -31 -10 12 -15 33 -13
53 2 17 0 32 -4 32 -4 0 -8 -10 -8 -23 0 -20 -4 -23 -30 -19 -32 5 -42 22 -12
22 14 0 15 2 2 10 -17 11 -29 -5 -35 -47 -2 -16 -7 -39 -10 -53 -4 -21 -4 -22
3 -5 8 18 11 17 31 -15 11 -19 21 -41 21 -47 0 -7 5 -13 10 -13 13 0 13 1 -6
38 -21 43 -30 102 -15 102 7 0 9 -5 5 -12 -4 -6 -3 -8 4 -4 16 10 25 -12 27
-68 2 -51 -9 -81 -26 -71 -4 3 -21 -17 -37 -45 -27 -46 -30 -49 -36 -28 -8 33
-7 98 2 98 4 0 7 -17 5 -37 -2 -36 -2 -37 6 -8 13 46 12 59 -4 81 -13 16 -14
16 -9 2 3 -10 1 -18 -5 -18 -7 0 -11 -22 -11 -57 0 -51 -1 -55 -13 -38 -19 28
-29 57 -17 50 6 -3 10 -2 10 4 0 21 -18 19 -41 -5 -17 -18 -19 -25 -8 -22 13
3 79 -60 79 -76 0 -14 -31 -5 -51 15 -17 17 -23 19 -30 8 -13 -22 -11 -28 10
-24 11 2 27 -2 36 -9 16 -12 15 -14 -9 -33 -17 -14 -26 -31 -27 -49 0 -25 -2
-23 -14 15 -7 24 -13 65 -12 92 1 27 -1 49 -4 49 -3 0 -3 14 -1 31 3 22 1 30
-7 25 -16 -10 -14 -3 14 45 14 24 25 54 25 67 0 36 18 62 38 55 10 -4 14 -2 9
3 -5 5 -20 9 -33 9 -20 1 -24 -4 -25 -30 -1 -16 -5 -41 -9 -55 -7 -19 -9 -13
-7 27 1 31 -2 51 -8 50 -6 -1 -9 -28 -7 -63 2 -45 -1 -64 -13 -74 -18 -15 -21
0 -3 18 8 8 9 15 3 20 -17 12 -45 69 -45 91 0 12 -4 21 -9 21 -12 0 -23 -29
-15 -41 3 -5 0 -9 -6 -9 -6 0 -15 11 -20 25 -12 32 -35 34 -26 3 4 -13 9 -36
12 -53 l6 -30 -22 25 c-12 14 -19 19 -15 13 3 -7 2 -13 -4 -13 -5 0 -12 18
-16 40 -6 34 -9 39 -21 29 -10 -8 -14 -8 -14 0 0 26 -30 10 -31 -16 l-1 -28
-11 28 c-6 15 -14 27 -19 27 -11 0 -10 -14 1 -25 8 -9 45 -100 65 -158 3 -10
11 -15 17 -11 6 3 7 9 3 13 -16 11 -44 81 -44 107 0 20 4 25 16 20 9 -3 19 -6
24 -6 12 0 19 -36 9 -51 -7 -12 -9 -12 -9 0 0 8 -2 12 -5 9 -3 -3 2 -25 11
-48 13 -33 14 -44 4 -50 -21 -13 -3 -47 25 -47 29 0 30 5 12 50 -7 18 -12 38
-11 45 1 6 2 19 3 28 0 8 6 12 12 9 6 -4 8 -14 5 -22 -3 -8 -2 -12 3 -9 5 4 8
-11 6 -31 -2 -33 -2 -34 4 -8 8 39 21 11 14 -31 -5 -26 -4 -27 9 -11 15 20 12
91 -3 81 -5 -3 -9 13 -9 34 0 32 4 41 22 45 26 7 24 8 32 -20 5 -14 3 -23 -3
-23 -6 0 -11 5 -11 11 0 5 -4 7 -10 4 -21 -13 -10 -31 18 -29 26 2 28 -1 29
-37 2 -41 -10 -52 -22 -21 -6 14 -9 12 -16 -12 -5 -18 -4 -35 1 -41 12 -15 3
-25 -16 -18 -8 3 -20 1 -27 -5 -6 -5 -27 -12 -44 -14 -32 -4 -33 -4 -59 66
-15 39 -36 91 -47 116 -11 25 -25 55 -30 68 -7 13 -19 22 -33 22 -20 0 -23 -7
-30 -57 l-7 -56 -18 34 c-10 19 -18 44 -19 57 0 12 -3 22 -7 22 -5 0 -9 -39
-11 -86z m116 26 c-2 -13 -7 -17 -16 -11 -9 5 -11 17 -6 36 6 23 8 25 16 11 5
-9 8 -25 6 -36z m697 -30 c10 -16 -31 -85 -71 -120 l-38 -33 -9 27 c-7 22 -5
30 15 46 12 11 29 19 36 20 6 0 12 6 12 14 0 8 9 21 20 29 11 8 17 17 13 20
-3 4 -1 7 5 7 6 0 14 -4 17 -10z m-699 -22 c-3 -13 -6 -39 -6 -58 -1 -33 -1
-34 -15 -16 -15 20 -20 77 -8 89 3 4 13 7 21 7 10 0 13 -7 8 -22z m29 -57 c-4
-34 -12 -61 -17 -61 -7 0 -8 17 -4 46 3 26 6 58 6 72 0 19 3 23 11 15 7 -7 9
-32 4 -72z m532 19 c2 -22 -1 -40 -6 -40 -11 0 -21 49 -14 67 10 24 18 13 20
-27z m-482 -67 c5 -19 3 -23 -15 -23 -16 0 -20 4 -16 16 3 9 6 23 6 32 0 21
15 5 25 -25z m200 -29 c-9 -9 -19 -13 -23 -10 -3 4 -2 10 4 14 6 4 14 16 19
27 7 18 9 18 12 3 3 -10 -3 -25 -12 -34z m291 11 c7 -39 0 -65 -16 -65 -6 0
-8 5 -5 10 3 6 2 10 -3 10 -5 0 -17 -16 -27 -36 -9 -19 -23 -38 -31 -41 -26
-10 -35 -39 -17 -54 12 -10 14 -10 9 -2 -4 8 4 27 18 46 15 19 26 40 26 47 0
9 3 11 10 4 11 -11 -13 -139 -30 -159 -6 -7 -7 -20 -4 -29 4 -10 -1 -26 -12
-38 -11 -12 -13 -18 -5 -13 11 6 13 4 7 -11 -5 -10 -11 -27 -13 -36 -8 -28
-20 -21 -26 15 -4 25 1 38 22 61 l26 30 -25 -16 -26 -16 2 43 c1 24 5 49 10
56 4 8 1 17 -8 23 -13 8 -11 16 19 55 18 25 42 56 52 68 10 12 16 24 14 27 -8
8 6 56 17 56 5 0 12 -16 16 -35z m-51 -7 c-4 -13 -22 -46 -42 -75 -24 -37 -39
-50 -50 -46 -13 5 -15 2 -11 -15 4 -15 2 -22 -8 -22 -8 0 -13 -3 -12 -7 3 -11
-23 -86 -33 -98 -21 -22 -7 73 16 115 l25 45 -25 -30 c-14 -16 -25 -25 -25
-19 0 12 49 61 56 56 7 -4 54 54 54 67 0 7 7 14 15 17 8 4 15 12 15 20 0 8 7
14 16 14 11 0 14 -6 9 -22z m-295 -53 c0 -14 -5 -25 -12 -25 -9 0 -9 -3 0 -12
7 -7 12 -25 12 -42 0 -44 11 -25 14 25 5 75 6 79 16 79 6 0 10 -9 10 -19 0
-11 4 -21 9 -23 5 -1 12 -23 16 -48 7 -40 6 -43 -9 -31 -9 7 -16 20 -16 28 0
8 -4 12 -9 9 -4 -3 -6 -17 -4 -30 4 -19 1 -24 -13 -22 -13 2 -24 19 -35 49 -8
26 -19 50 -22 54 -13 12 -7 25 8 19 8 -3 15 -1 15 4 0 6 5 10 10 10 6 0 10
-11 10 -25z m-76 -10 c4 -14 12 -25 19 -25 11 0 16 -71 8 -137 0 -8 -16 -13
-41 -13 -45 0 -55 17 -12 22 21 2 27 9 29 28 1 14 0 18 -3 8 -3 -10 -12 -18
-19 -18 -19 0 -36 66 -25 96 5 13 7 31 3 41 -4 11 -3 14 5 9 7 -4 12 -2 12 3
0 21 18 11 24 -14z m164 -158 c19 -72 23 -117 13 -117 -6 0 -4 -15 5 -35 15
-37 20 -180 5 -171 -5 3 -12 41 -16 83 -3 43 -8 94 -9 113 -2 19 -15 55 -30
80 -26 45 -31 74 -20 105 6 14 8 15 24 0 10 -9 22 -35 28 -58z m119 23 c-4
-16 -2 -32 4 -36 6 -4 5 -14 -5 -29 -9 -13 -13 -30 -11 -37 3 -8 -5 -24 -18
-37 -21 -19 -25 -20 -31 -6 -8 21 3 65 16 65 5 0 7 4 3 9 -3 5 -1 12 4 16 6 3
8 12 5 20 -5 12 22 65 33 65 3 0 3 -13 0 -30z m337 -4 c-3 -9 -11 -13 -17 -9
-6 4 -8 0 -4 -10 4 -11 1 -17 -8 -17 -8 0 -15 -9 -15 -20 0 -21 -69 -105 -78
-95 -3 3 4 15 15 28 12 12 31 44 44 71 12 27 31 51 41 54 10 2 18 9 18 15 0 6
2 8 5 5 3 -3 3 -13 -1 -22z m-534 -31 c0 -14 -7 -25 -18 -28 -19 -4 -20 3 -14
62 3 23 32 -8 32 -34z m34 -67 c-3 -5 -1 -8 4 -8 16 0 33 -79 31 -148 0 -37 2
-74 6 -83 5 -13 -2 -20 -30 -29 -20 -7 -38 -10 -40 -8 -8 8 -14 189 -6 183 5
-3 7 4 4 15 -3 11 -2 46 2 77 7 55 8 56 20 33 7 -14 11 -28 9 -32z m428 -60
c-12 -24 -28 -68 -36 -99 -14 -49 -24 -63 -101 -133 -47 -43 -85 -72 -84 -64
0 7 4 34 8 60 4 26 4 45 -1 42 -4 -3 -8 -16 -8 -30 0 -16 -6 -24 -17 -24 -14
0 -18 -9 -19 -35 0 -25 4 -35 14 -35 12 0 9 -7 -8 -25 -28 -29 -56 -34 -45 -7
4 9 10 40 12 67 5 47 9 54 81 122 63 58 79 70 92 60 12 -9 13 -9 3 3 -15 16 0
40 25 40 8 0 12 3 9 7 -11 10 13 33 35 33 11 0 16 5 13 10 -6 10 36 63 43 55
2 -2 -5 -23 -16 -47z m-250 -14 c13 -35 12 -46 -1 -86 -9 -26 -19 -50 -23 -54
-5 -4 -8 -16 -8 -26 0 -10 -4 -18 -9 -18 -4 0 -11 38 -15 85 -7 80 -6 87 16
114 13 16 24 28 25 27 1 -1 8 -19 15 -42z m289 18 c-5 -9 -19 -26 -32 -37
l-22 -20 13 25 c11 21 38 49 48 50 1 0 -2 -8 -7 -18z m-350 -189 c0 -16 2 -40
3 -55 1 -14 -2 -24 -6 -22 -3 2 -9 0 -13 -6 -16 -26 -21 -5 -9 41 8 29 11 56
8 60 -3 5 0 9 5 9 6 0 11 -12 12 -27z m-4 -145 c-11 -63 -33 -118 -47 -118 -5
0 -10 -6 -10 -14 0 -8 -7 -22 -16 -30 -9 -9 -20 -29 -24 -44 l-8 -27 -1 27
c-1 15 3 29 8 32 4 3 16 31 26 63 21 70 64 163 74 163 4 0 3 -24 -2 -52z
m-208 -70 c-10 -37 -14 -42 -28 -33 -6 3 -11 21 -11 39 0 30 3 33 24 29 22 -4
23 -8 15 -35z"/>
<path d="M370 1378 c-18 -17 -20 -23 -9 -26 8 -2 22 -14 31 -26 22 -26 24 -8
2 22 -12 18 -13 26 -4 37 18 22 7 18 -20 -7z"/>
<path d="M368 1295 c2 -14 11 -25 18 -25 17 0 17 5 4 31 -15 27 -28 24 -22 -6z"/>
<path d="M1309 2043 c5 -10 10 -22 10 -28 1 -5 14 -29 29 -53 15 -24 27 -47
27 -52 0 -5 10 -18 23 -30 12 -11 22 -16 22 -11 0 5 -8 16 -17 23 -10 7 -19
19 -21 26 -1 7 -13 30 -27 50 -13 20 -27 49 -30 65 -4 15 -11 27 -16 27 -6 0
-6 -7 0 -17z"/>
<path d="M1560 2044 c0 -8 4 -14 9 -14 5 0 16 -17 25 -37 10 -21 24 -50 32
-65 21 -39 3 -42 -32 -5 -19 21 -23 29 -11 24 11 -4 16 -3 12 3 -3 6 -15 10
-25 10 -10 0 -22 5 -26 11 -5 8 1 10 19 7 18 -3 24 -1 20 8 -2 7 -11 10 -18 7
-21 -7 -41 7 -24 18 10 6 8 9 -7 9 -14 0 -24 -8 -27 -21 -4 -16 -2 -19 10 -15
14 6 14 4 2 -11 -8 -10 -18 -21 -24 -25 -6 -5 -5 -8 3 -8 19 0 27 4 24 13 -1
5 5 7 15 5 10 -2 17 -10 15 -17 -1 -7 2 -10 6 -7 5 3 17 -3 27 -14 10 -11 15
-20 11 -20 -4 0 12 -18 36 -40 36 -33 41 -42 28 -51 -12 -8 -10 -9 10 -7 22 3
25 -1 23 -27 -1 -16 1 -22 4 -12 4 17 22 24 24 10 3 -17 10 -100 11 -122 0
-34 -21 -52 -28 -23 -4 12 -10 20 -14 17 -5 -3 -11 -1 -15 5 -3 5 -14 10 -23
9 -11 0 -9 -4 8 -10 20 -8 22 -12 10 -20 -13 -9 -13 -10 0 -6 8 2 22 -6 30
-17 27 -36 53 -104 45 -117 -5 -8 -4 -10 3 -5 14 8 15 -3 3 -22 -6 -10 -10 -6
-16 15 -5 15 -9 30 -10 33 -1 3 -5 17 -9 32 -4 15 -14 29 -22 32 -8 3 -14 12
-14 21 0 8 -4 15 -10 15 -15 0 -12 -16 5 -30 8 -7 15 -17 15 -23 0 -6 -11 0
-25 13 -14 13 -23 30 -20 38 2 7 0 10 -5 7 -5 -3 -15 7 -22 22 -7 15 -15 30
-18 33 -3 3 -11 17 -19 32 -7 14 -23 29 -35 33 -20 7 -20 7 4 15 25 8 25 8 2
9 -13 1 -22 6 -20 13 2 6 -5 22 -16 34 -50 56 -56 65 -56 77 0 9 2 9 8 -1 6
-9 12 -5 21 14 7 15 8 31 3 36 -4 4 -5 32 -1 61 3 28 6 52 5 53 0 0 -12 -5
-26 -13 -21 -11 -22 -13 -6 -13 20 0 20 0 0 -16 -17 -14 -17 -15 -1 -10 16 5
18 2 12 -27 -4 -17 -12 -41 -17 -51 -10 -18 -12 -16 -24 14 -8 18 -17 30 -20
27 -3 -3 -2 -12 2 -19 12 -18 16 -39 15 -70 0 -15 4 -30 8 -33 5 -3 7 4 4 15
-8 30 4 24 22 -10 18 -35 19 -44 3 -34 -7 4 -8 3 -4 -5 4 -6 12 -9 17 -6 5 4
9 0 9 -8 0 -8 7 -20 15 -27 8 -7 15 -20 15 -30 0 -10 9 -20 19 -23 11 -2 34
-30 51 -60 17 -30 37 -61 45 -67 8 -7 12 -16 9 -21 -3 -5 -1 -9 5 -9 20 0 58
-46 80 -94 12 -27 19 -51 17 -54 -3 -2 6 -19 19 -36 13 -17 29 -52 34 -76 11
-49 15 -150 5 -150 -20 0 -84 66 -95 98 -7 20 -23 59 -35 87 -27 58 -30 85 -9
85 9 0 12 6 9 15 -4 8 -1 15 5 15 15 0 14 36 -2 52 -8 7 -12 19 -9 26 2 7 -5
12 -20 11 -16 -1 -18 -3 -6 -6 10 -2 15 -10 11 -19 -3 -8 -1 -14 5 -14 5 0 13
-7 16 -15 6 -16 -43 -75 -62 -75 -6 0 -14 -5 -18 -12 -4 -6 -3 -8 3 -5 15 9
30 -12 64 -85 l29 -63 -41 45 c-54 59 -133 179 -135 205 -1 11 -5 28 -9 37 -4
10 -5 23 -2 30 4 8 8 5 12 -9 4 -13 11 -23 15 -23 4 0 11 -7 14 -16 3 -8 2
-12 -4 -9 -6 3 -10 1 -10 -4 0 -6 7 -11 15 -11 8 0 25 -11 37 -25 11 -13 25
-22 29 -19 5 3 6 -3 2 -13 -5 -15 -2 -14 16 4 11 12 21 29 21 36 0 19 -42 30
-52 14 -5 -9 -11 -6 -22 8 -8 11 -12 23 -10 27 3 5 -2 8 -10 8 -22 0 -20 17 2
23 10 3 6 5 -11 6 -35 1 -45 26 -24 63 9 15 11 28 6 28 -6 0 -9 10 -7 23 1 14
-14 44 -42 82 -66 89 -100 116 -100 79 0 -8 4 -13 10 -9 14 9 52 -34 46 -52
-3 -8 -6 -31 -7 -51 0 -20 -3 -31 -6 -24 -7 19 -17 14 -36 -17 -12 -20 -14
-32 -6 -36 5 -4 13 -4 16 -1 3 3 13 0 22 -7 14 -11 14 -10 2 5 -7 10 -17 15
-22 12 -5 -3 -9 2 -9 10 0 8 4 17 8 20 10 6 62 -41 62 -56 0 -6 8 -20 18 -31
12 -15 14 -21 5 -24 -9 -3 -10 -10 -4 -21 12 -25 22 -82 13 -82 -23 0 -52 34
-52 61 0 16 -4 29 -9 29 -5 0 -7 -10 -4 -22 l6 -23 -22 22 c-11 12 -21 29 -21
38 0 18 30 20 50 3 12 -11 12 -10 2 3 -7 9 -33 22 -57 29 -25 7 -45 17 -45 21
0 5 -7 9 -16 9 -8 0 -12 5 -9 10 3 6 2 10 -3 10 -5 0 -14 -12 -21 -27 -10 -24
-10 -26 2 -11 13 17 15 17 32 -2 16 -17 14 -24 -5 -22 -11 1 -9 -42 1 -49 6
-3 12 -24 12 -45 2 -32 -1 -39 -16 -38 -17 2 -17 0 -3 -15 9 -10 16 -23 16
-29 0 -7 7 -12 15 -12 20 0 19 10 -2 27 -16 13 -15 14 12 8 29 -6 29 -6 11 14
-10 11 -15 24 -12 30 3 5 0 12 -6 14 -10 4 -10 6 0 6 6 1 12 8 12 17 0 8 -4
12 -10 9 -5 -3 -10 -2 -10 3 0 6 7 13 15 16 17 6 88 -51 80 -64 -2 -4 13 -13
35 -20 34 -11 84 -59 63 -60 -5 0 0 -5 10 -11 9 -5 17 -14 17 -19 0 -20 -31
-9 -76 25 -25 19 -50 33 -55 30 -5 -4 -6 2 -3 12 3 11 -5 6 -20 -12 -14 -16
-26 -41 -26 -54 0 -19 -4 -22 -22 -17 -13 3 -29 6 -36 6 -7 0 -10 5 -7 10 3 6
2 10 -3 10 -13 0 -24 -29 -16 -41 8 -14 95 -3 105 13 6 9 9 9 9 1 0 -6 -4 -14
-10 -18 -5 -3 -8 -11 -6 -18 1 -7 1 -9 -1 -4 -8 14 -22 7 -17 -8 4 -8 1 -15
-5 -15 -12 0 -4 -28 15 -50 17 -20 18 -140 0 -140 -8 0 -12 -17 -12 -55 1 -42
-3 -57 -18 -68 -15 -11 -17 -22 -12 -55 4 -31 2 -42 -8 -42 -21 0 -25 10 -16
41 5 17 5 29 -1 29 -5 0 -9 65 -9 153 -1 144 -2 150 -15 112 -17 -46 -19 -69
-6 -61 4 3 8 -55 8 -129 0 -108 -2 -135 -13 -135 -8 0 -14 11 -14 25 0 14 -9
30 -20 37 -19 12 -19 13 0 33 19 21 19 21 0 21 -11 0 -20 -7 -21 -16 0 -8 -3
-27 -5 -42 -3 -16 0 -28 6 -28 5 0 11 6 11 13 1 6 5 -1 8 -18 11 -46 0 -228
-15 -242 -15 -15 -34 -17 -34 -3 0 6 4 10 10 10 6 0 8 93 5 252 -4 199 -8 254
-19 260 -10 6 -15 -4 -18 -43 -4 -41 -12 -57 -44 -91 -21 -23 -31 -38 -21 -35
11 4 17 1 17 -9 0 -8 -4 -13 -9 -9 -18 10 -23 -17 -23 -106 l1 -89 -29 0 c-16
0 -31 -4 -34 -9 -3 -4 10 -7 29 -5 l35 2 -15 -34 c-12 -29 -12 -34 0 -34 12 0
13 -10 8 -46 -5 -39 -3 -49 12 -60 10 -8 16 -17 12 -20 -3 -4 -14 2 -24 12
-17 16 -18 16 -21 1 -4 -22 -19 -22 -25 1 -4 13 -5 12 -6 -5 0 -12 -7 -25 -13
-29 -7 -4 -10 -4 -6 1 5 5 -1 14 -12 22 -23 17 -27 43 -5 43 8 0 15 -6 15 -12
0 -7 8 -2 17 11 16 23 17 23 24 5 7 -18 8 -18 8 -1 1 11 -7 21 -17 24 -19 4
-29 44 -10 40 17 -3 18 34 2 51 -13 13 -15 11 -12 -14 2 -17 -2 -28 -8 -27
-14 3 -5 -49 10 -59 6 -5 1 -8 -11 -8 -21 0 -23 4 -23 63 l0 63 -100 -2 -99
-3 6 29 c4 22 1 31 -11 36 -22 8 -20 27 3 41 14 9 18 19 13 35 -5 22 -6 22
-18 -7 l-13 -30 -1 36 c0 35 -1 36 -46 43 -26 3 -60 6 -75 6 -25 0 -29 4 -30
28 0 15 -4 36 -9 47 -7 14 -8 6 -4 -25 3 -24 8 -48 10 -52 5 -8 44 -15 104
-21 l35 -3 2 -105 c1 -68 5 -103 12 -102 18 5 12 -13 -11 -33 -17 -16 -20 -16
-15 -3 3 9 0 22 -6 28 -11 11 -11 77 -1 111 5 19 -70 42 -104 33 -38 -10 -24
-23 18 -17 39 6 40 6 40 -24 0 -17 5 -34 10 -37 6 -3 10 -19 10 -36 0 -16 3
-29 8 -29 4 0 8 -23 9 -50 1 -29 -3 -50 -9 -50 -5 0 -8 7 -5 15 4 8 2 17 -3
20 -6 4 -10 1 -10 -6 0 -7 -3 -9 -6 -6 -4 4 -1 13 6 22 10 12 10 15 -2 15 -17
0 -20 -29 -5 -48 6 -7 6 -12 1 -10 -5 2 -9 -1 -9 -7 0 -5 3 -9 7 -8 14 5 9
-14 -7 -27 -8 -7 -15 -21 -15 -31 0 -11 -4 -19 -8 -19 -13 0 -6 -51 8 -60 20
-13 36 10 44 63 4 26 11 47 17 47 5 0 9 6 9 13 0 8 13 11 43 9 30 -3 47 1 56
12 12 14 9 16 -23 16 -20 0 -36 -4 -36 -10 0 -5 -4 -10 -10 -10 -5 0 -10 8
-10 18 0 14 -2 15 -10 2 -8 -12 -9 -9 -8 12 2 21 5 24 15 16 10 -8 13 -5 13
11 0 20 5 21 84 21 47 0 88 4 91 10 4 6 -1 7 -12 3 -16 -6 -16 -5 -5 10 12 14
43 14 40 -1 -1 -4 2 -15 7 -25 5 -13 1 -24 -14 -38 -11 -11 -23 -19 -26 -19
-25 1 -27 -1 -15 -15 13 -16 35 -21 26 -6 -3 5 1 11 9 15 11 4 15 -3 16 -27 0
-18 3 -26 6 -20 8 21 26 15 20 -7 -3 -11 -1 -18 3 -15 5 3 11 1 14 -4 3 -5 -1
-12 -9 -15 -12 -4 -13 -11 -7 -23 5 -10 7 -24 5 -30 -3 -7 0 -13 6 -13 6 0 10
14 9 32 -2 24 2 33 15 36 15 3 16 0 7 -22 -7 -19 -6 -25 3 -23 7 1 15 7 19 12
4 6 8 -11 8 -37 0 -27 5 -48 10 -48 6 0 10 6 9 12 -4 30 3 38 29 39 33 1 78
17 50 18 -13 1 -18 9 -18 29 l1 27 15 -25 c15 -24 15 -24 11 23 -3 26 -1 50 4
53 5 3 9 14 9 25 0 16 7 19 46 19 l47 0 -5 -45 c-4 -34 -2 -45 8 -45 8 0 14
-4 14 -10 0 -5 -5 -10 -11 -10 -16 0 -39 26 -39 44 0 19 -40 22 -41 4 0 -7 -2
-23 -5 -35 -3 -19 1 -23 24 -24 15 -1 31 -1 36 0 5 1 6 -5 3 -14 -7 -17 7 -18
38 -5 20 9 20 9 0 10 -11 1 -14 4 -7 7 14 6 16 39 2 48 -5 3 -10 22 -10 41 0
30 3 34 25 34 28 0 32 -12 10 -34 -20 -20 -19 -36 4 -36 15 0 18 -6 16 -30 -1
-17 2 -30 7 -30 5 0 6 -5 3 -10 -3 -5 -18 -10 -32 -10 -19 0 -24 -4 -19 -16 3
-9 6 -18 6 -20 0 -2 9 -4 20 -4 11 0 20 7 20 15 0 21 30 31 41 14 6 -10 9 -10
9 -1 0 13 56 17 84 6 33 -13 14 -23 -46 -27 -54 -3 -51 -3 25 -5 79 -2 87 0
87 17 0 20 -40 31 -117 31 -24 0 -43 5 -43 11 0 5 5 7 10 4 10 -6 11 21 11
200 0 215 -3 318 -10 301 -6 -17 -8 -17 -14 -4 -3 10 0 19 9 22 12 5 15 27 13
115 -1 89 -4 109 -15 104 -8 -3 -14 0 -14 6 0 6 6 11 13 11 7 0 14 12 15 27 3
35 8 39 60 47 44 7 47 5 33 -22 -8 -14 -3 -17 26 -20 19 -1 41 -8 49 -15 7 -6
25 -21 40 -32 14 -11 40 -35 56 -52 17 -18 34 -31 37 -29 10 7 10 -48 0 -61
-6 -7 -7 -27 -2 -50 l8 -38 5 50 5 50 63 -95 c42 -65 62 -87 62 -72 0 12 -4
22 -8 22 -4 0 -18 20 -29 44 -12 24 -35 59 -52 79 -39 44 -39 53 -2 31 17 -10
28 -22 25 -28 -3 -6 1 -3 9 7 24 29 42 18 39 -23 0 -3 8 -17 18 -30 19 -25 19
-25 6 30 -8 30 -17 109 -20 175 -5 96 -3 125 9 145 8 14 37 71 65 128 27 58
54 101 60 97 5 -3 7 0 4 8 -3 8 2 20 11 27 16 14 21 35 5 25 -6 -3 -7 1 -4 9
3 9 10 14 14 11 4 -3 14 3 21 12 10 12 10 14 2 9 -17 -10 -16 4 3 43 9 18 14
35 10 38 -3 3 -13 -13 -22 -36 -9 -22 -19 -39 -23 -36 -4 2 -8 -1 -8 -8 -1 -7
-13 -34 -27 -62 l-27 -50 5 53 c3 34 12 61 25 75 12 12 34 39 50 60 16 20 31
34 33 30 3 -5 3 -3 2 4 -2 6 4 17 12 23 8 7 14 18 14 24 0 7 16 31 35 53 19
23 35 46 35 51 0 5 7 15 15 22 8 7 12 16 9 22 -9 14 -33 -11 -54 -56 -10 -23
-28 -49 -39 -58 -22 -18 -30 -11 -10 9 7 7 8 17 3 25 -12 19 -16 50 -8 68 5
11 9 7 14 -15 l8 -30 1 27 c1 30 -10 41 -32 32 -11 -4 -12 -14 -5 -52 4 -26 6
-53 3 -60 -3 -7 -1 -22 5 -32 10 -19 -10 -47 -23 -33 -4 3 -7 0 -7 -7 0 -8
-12 -31 -27 -52 -20 -29 -29 -36 -36 -26 -6 9 -7 8 -3 -4 3 -10 1 -20 -4 -23
-6 -4 -10 8 -10 26 0 40 30 139 42 139 5 0 6 4 3 10 -3 5 1 33 10 62 18 61 17
58 6 58 -5 0 -11 -12 -14 -27 -3 -16 -15 -59 -26 -98 l-21 -70 6 65 c4 36 13
78 21 93 8 16 12 31 9 34 -3 3 -13 -13 -22 -37 -12 -29 -19 -38 -25 -29 -5 8
-2 20 6 29 13 14 11 18 -20 29 -34 12 -37 11 -64 -18 -32 -35 -47 -40 -37 -14
4 10 4 14 0 10 -5 -4 -14 3 -21 15 -7 13 -12 17 -13 9 0 -8 -6 -11 -17 -7 -10
4 -14 4 -11 0 4 -3 0 -13 -8 -21 -8 -8 -12 -19 -8 -24 7 -13 -14 -39 -32 -39
-8 0 -14 11 -14 26 0 19 4 25 15 20 8 -3 15 -1 15 4 0 6 -6 10 -12 10 -9 0 -8
4 2 10 13 9 13 10 0 11 -10 0 -8 3 5 9 13 6 15 9 5 9 -31 1 -39 -15 -42 -82
-1 -16 4 -32 12 -37 7 -4 9 -13 5 -19 -5 -9 -11 -7 -22 6 -14 17 -14 17 -9 0
3 -10 6 -23 6 -28 0 -5 7 -9 15 -9 8 0 15 5 15 12 0 6 3 8 7 5 3 -4 14 10 24
31 10 20 27 48 38 62 17 22 21 23 26 8 7 -19 -41 -91 -55 -83 -5 3 -6 -4 -3
-15 3 -12 0 -20 -7 -20 -7 0 -10 -7 -7 -15 4 -8 2 -17 -3 -20 -6 -4 -10 -21
-10 -38 l-1 -32 -19 40 c-12 25 -15 42 -8 46 5 4 -2 9 -17 13 -18 5 -25 12
-21 21 3 8 1 15 -5 15 -6 0 -7 5 -4 10 3 6 1 10 -4 10 -6 0 -11 4 -11 10 0 5
7 6 17 3 11 -4 14 -3 9 5 -4 7 -16 12 -26 12 -14 0 -21 10 -27 42 -6 27 -14
42 -26 44 -9 1 -17 -4 -17 -12z m359 -12 c-11 -2 -15 -10 -12 -23 4 -14 0 -22
-14 -25 -11 -3 -30 -23 -42 -45 -12 -21 -23 -39 -24 -39 -1 0 -3 17 -5 38 -2
28 3 44 18 57 11 10 20 15 20 11 0 -4 10 3 22 17 13 15 28 22 38 19 13 -6 13
-7 -1 -10z m18 -64 c5 -12 6 -42 2 -69 -4 -26 -9 -101 -10 -166 -3 -115 -4
-120 -45 -209 -28 -63 -48 -94 -63 -99 -17 -5 -19 -10 -11 -25 11 -20 4 -50
-11 -50 -5 0 -8 25 -7 56 2 48 4 53 15 38 12 -16 13 -16 13 -2 0 9 -4 20 -10
23 -5 3 -10 16 -9 28 0 53 -14 128 -22 115 -7 -10 -9 -9 -9 5 0 9 7 17 15 17
9 0 15 10 16 23 1 20 2 20 7 2 5 -20 5 -20 13 0 6 14 8 6 7 -27 -1 -27 -4 -48
-7 -48 -3 0 -7 -15 -8 -33 -4 -59 19 -1 24 64 l6 59 36 -5 36 -4 -37 10 c-21
6 -38 14 -38 18 0 4 -7 16 -16 27 -15 18 -15 18 -5 -3 14 -29 14 -33 -4 -33
-8 0 -15 7 -15 16 0 8 -4 13 -9 10 -5 -3 -7 -14 -4 -24 2 -10 -3 -25 -13 -33
-16 -13 -17 -11 -11 16 3 17 8 41 13 54 6 21 4 23 -17 17 -13 -3 -18 -3 -12 0
9 4 10 11 2 25 -12 23 -1 98 12 77 5 -7 9 -23 9 -35 0 -12 5 -34 11 -50 11
-27 12 -26 25 32 7 33 13 66 13 73 1 7 6 10 13 6 8 -5 9 -2 5 9 -6 16 64 117
82 117 4 0 12 -10 18 -22z m-132 -106 c-7 -77 -14 -78 -28 -4 -5 23 -3 31 5
26 8 -5 9 2 5 23 -3 18 -1 35 6 42 18 18 20 0 12 -87z m-296 -207 c-1 -16 -4
-41 -8 -55 l-7 -25 -12 22 c-15 27 -15 36 0 27 7 -4 8 -3 4 5 -4 6 -11 9 -16
6 -14 -9 -24 43 -11 59 8 10 8 16 -4 26 -8 7 -12 17 -8 23 11 19 63 -54 62
-88z m265 -115 c9 -43 11 -67 4 -71 -6 -4 -7 -13 -1 -25 6 -11 7 -30 3 -44 -7
-23 -8 -23 -15 12 -4 21 -4 45 -1 54 4 9 -2 40 -13 69 -15 41 -17 55 -8 65 9
10 9 11 0 6 -14 -8 -18 6 -6 18 10 10 20 -12 37 -84z m-399 30 c-4 -6 -15 -8
-26 -5 -12 4 -19 2 -19 -6 0 -7 -3 -9 -7 -5 -4 4 3 16 17 26 25 19 49 12 35
-10z m64 -182 c1 23 1 23 31 6 34 -21 33 -23 -14 -34 -36 -8 -36 -7 -35 24 1
30 1 30 9 6 8 -25 8 -25 9 -2z m159 -69 c30 -38 16 -37 -22 1 -18 18 -24 30
-15 29 8 0 24 -13 37 -30z m-398 -218 c0 -5 -7 -11 -15 -15 -20 -7 -19 -52 1
-60 8 -3 12 -11 8 -17 -4 -8 -9 -7 -15 2 -5 9 -9 -12 -9 -53 0 -38 3 -67 8
-65 4 1 8 -2 10 -8 1 -5 -2 -11 -8 -11 -5 -1 -14 -2 -19 -3 -5 0 -5 -16 1 -36
9 -26 8 -38 -2 -49 -7 -9 -16 -13 -21 -10 -14 8 -10 24 6 24 8 0 15 7 15 16 0
10 -6 14 -15 10 -19 -7 -20 27 -1 46 12 12 11 18 -3 36 -15 21 -16 16 -19 -96
-2 -64 -6 -119 -8 -121 -7 -8 -2 243 6 274 5 20 8 24 9 10 1 -17 3 -17 11 -5
5 8 7 25 4 37 -4 13 3 38 17 62 21 38 39 53 39 32z m206 -341 c-3 -121 -8
-225 -11 -230 -20 -33 -26 4 -24 168 3 236 7 282 26 282 12 0 14 -30 9 -220z
m-61 101 c3 -5 -8 -18 -25 -27 -32 -19 -33 -22 -30 -96 1 -39 -2 -48 -15 -48
-14 0 -16 8 -10 62 5 43 13 68 26 79 10 9 19 21 19 28 0 13 26 15 35 2z m-167
-118 c-4 -43 -18 -51 -37 -21 -12 19 -11 24 9 40 30 25 32 23 28 -19z m163
-10 c-3 -37 -6 -43 -12 -28 -6 17 -8 17 -8 3 -1 -10 -5 -18 -11 -18 -16 0 -8
70 9 80 25 15 26 13 22 -37z m-521 27 c0 -7 15 -9 40 -5 39 6 47 1 32 -20 -10
-14 -42 -18 -42 -5 0 14 -27 13 -33 -2 -8 -18 -27 11 -20 29 6 15 23 18 23 3z
m343 -94 c-5 -25 -33 -45 -33 -23 0 8 -4 6 -10 -3 -8 -12 -10 -10 -10 8 0 13
4 20 10 17 6 -3 10 1 10 9 0 9 8 16 19 16 14 0 17 -6 14 -24z m-8 -72 c-14
-13 -33 -24 -41 -24 -11 0 -13 -6 -9 -20 3 -11 1 -28 -5 -37 -11 -17 -11 -17
-6 0 4 11 0 17 -11 17 -11 0 -13 4 -6 13 6 6 9 20 8 30 -2 11 3 17 16 17 11 0
22 7 26 16 3 8 12 13 20 10 10 -4 17 2 21 16 5 19 7 20 10 5 2 -10 -8 -29 -23
-43z m-450 -56 c-7 -37 -13 -48 -26 -48 -6 0 -4 10 3 23 7 12 13 27 14 32 2
21 4 25 9 25 3 0 3 -14 0 -32z m443 -15 c-3 -28 -28 -45 -28 -19 0 9 6 16 13
17 10 0 10 2 0 6 -18 7 -16 23 3 23 11 0 14 -8 12 -27z"/>
<path d="M1867 1773 c-13 -12 -7 -43 8 -43 8 0 15 6 15 13 0 18 -15 38 -23 30z"/>
<path d="M1621 2051 c-11 -7 -9 -10 7 -15 12 -4 24 -16 27 -27 8 -25 21 -25
21 1 0 10 -2 17 -4 15 -7 -6 -30 19 -25 28 6 10 -9 9 -26 -2z"/>
<path d="M2287 2053 c-9 -8 -9 -83 0 -83 3 0 14 7 24 16 14 13 15 21 7 45 -10
29 -19 35 -31 22z"/>
<path d="M2485 2038 c-4 -13 -7 -26 -6 -30 0 -4 -16 -19 -37 -32 -44 -28 -79
-65 -118 -123 -25 -38 -29 -50 -26 -103 4 -65 12 -71 51 -41 14 11 21 25 19
37 -4 17 -6 16 -15 -6 -10 -24 -10 -23 -17 12 -4 24 -2 49 8 71 16 39 36 57
36 32 0 -8 -7 -18 -15 -21 -8 -4 -15 -10 -15 -15 0 -4 6 -6 14 -3 10 4 15 -6
18 -41 2 -25 -1 -50 -5 -54 -5 -5 -4 -12 2 -16 6 -3 14 1 17 10 5 12 14 14 34
10 19 -4 31 -1 41 11 12 15 12 17 0 9 -10 -5 -12 -4 -7 3 4 7 17 17 28 23 18
10 20 9 14 -6 -5 -14 -4 -16 7 -7 8 7 16 10 18 8 2 -3 4 17 5 42 1 26 -1 40
-3 32 -3 -12 -125 -103 -129 -97 -1 1 -4 23 -7 48 l-6 46 64 44 c58 39 78 59
58 59 -3 0 -30 -18 -59 -40 -29 -22 -56 -40 -59 -40 -3 0 -5 9 -5 19 0 12 20
34 50 56 28 20 48 40 45 45 -3 4 5 6 17 4 13 -2 18 -2 13 1 -6 3 -9 21 -7 40
5 39 -12 48 -23 13z"/>
<path d="M2543 2035 c4 -17 10 -77 14 -135 4 -58 9 -95 11 -83 3 19 8 21 33
16 37 -7 37 2 2 21 -16 9 -21 15 -13 16 13 0 13 1 0 10 -12 8 -10 10 9 10 24
0 24 1 6 14 -11 8 -23 12 -27 10 -12 -8 -19 14 -12 41 5 20 11 24 26 19 15 -4
19 -2 16 7 -3 8 -12 13 -22 11 -10 -2 -16 4 -16 18 0 11 6 20 13 20 8 0 14 7
14 15 0 11 -4 12 -14 4 -10 -9 -17 -8 -29 2 -15 12 -16 10 -11 -16z"/>
<path d="M2865 2024 c-98 -59 -166 -106 -161 -111 2 -3 37 16 76 41 39 25 73
46 75 46 3 0 24 14 47 30 56 41 36 38 -37 -6z"/>
<path d="M2185 2019 c-18 -7 -17 -9 11 -20 l31 -12 7 -105 c4 -57 5 -106 3
-109 -3 -2 -16 -1 -31 3 -32 8 -36 44 -8 72 20 20 19 82 0 82 -6 0 -7 -7 -4
-16 10 -26 -4 -66 -21 -59 -11 4 -13 1 -9 -12 6 -15 5 -16 -6 -5 -10 10 -10
17 0 32 6 11 11 43 11 72 -1 29 -3 45 -6 35 -2 -9 -8 -15 -12 -13 -4 3 -16
-11 -26 -30 -15 -27 -16 -37 -6 -43 9 -6 8 -11 -4 -21 -8 -7 -15 -18 -15 -26
0 -7 -9 -16 -20 -19 -11 -3 -20 -11 -20 -16 0 -14 16 -11 30 6 11 13 15 13 23
3 6 -10 7 -9 4 4 -3 9 0 22 8 28 10 9 15 6 20 -10 5 -17 -4 -31 -45 -68 -48
-44 -51 -49 -41 -75 15 -39 13 -107 -4 -137 -9 -15 -14 -53 -15 -95 0 -38 -7
-104 -15 -145 -16 -80 -78 -227 -103 -247 -14 -12 -14 -13 1 -13 25 0 97 157
118 252 9 43 17 110 18 150 2 65 5 75 26 91 22 17 23 20 10 40 -8 13 -12 38
-10 61 2 27 -1 43 -11 51 -12 8 -5 19 39 57 l55 47 5 -32 c4 -25 -1 -42 -24
-74 -17 -24 -25 -43 -19 -43 6 0 10 -8 8 -17 -2 -10 -10 -18 -17 -18 -8 0 -15
-8 -17 -18 -2 -18 -1 -18 16 -2 14 13 19 13 23 3 3 -8 9 -2 16 15 11 28 31 37
31 13 0 -9 8 -12 25 -8 23 4 25 2 25 -36 0 -35 -2 -39 -20 -35 -13 3 -20 14
-20 29 0 15 -6 24 -16 24 -12 0 -14 -5 -8 -17 4 -10 10 -46 12 -81 4 -69 5
-68 -68 -116 -34 -22 -35 -25 -32 -75 2 -28 8 -48 13 -45 5 3 9 -7 9 -22 0
-15 3 -25 6 -22 3 4 6 30 6 60 1 52 11 78 30 78 5 0 7 -4 3 -9 -3 -5 -1 -12 5
-16 5 -3 10 3 10 14 0 11 5 23 10 26 6 4 10 -8 10 -29 0 -19 -6 -37 -12 -39
-10 -4 -10 -6 0 -6 6 -1 12 -13 12 -28 0 -21 -8 -33 -31 -46 -18 -10 -29 -21
-25 -24 3 -4 12 -1 18 5 20 20 36 14 33 -13 -1 -14 2 -28 6 -31 19 -12 6 -25
-48 -52 l-57 -27 1 -135 c1 -74 4 -186 8 -249 6 -86 4 -115 -5 -121 -19 -12
-50 0 -49 19 0 10 2 11 6 4 2 -7 9 -13 14 -13 6 0 8 3 5 8 -4 6 -22 287 -28
449 -3 60 -16 80 -34 51 -4 -7 -3 -8 4 -4 15 9 21 -33 25 -195 3 -117 1 -135
-10 -123 -16 15 -54 10 -89 -13 -21 -13 -23 -40 -7 -83 11 -29 9 -60 -4 -60
-9 0 -14 17 -15 53 -1 38 -2 43 -5 17 -7 -62 -17 -67 -24 -10 -12 97 -21 140
-30 146 -5 3 -6 -9 -3 -25 9 -46 -1 -65 -25 -49 -16 10 -30 10 -63 1 -38 -10
-44 -9 -56 8 -14 20 -42 26 -42 9 0 -5 9 -10 20 -10 23 0 26 -16 6 -36 -20
-19 -26 -18 -26 6 0 17 -7 20 -57 22 -32 1 -68 1 -80 0 -13 0 -23 3 -23 9 0 5
-8 9 -17 9 -14 0 -15 -2 -4 -9 9 -6 10 -11 2 -15 -6 -4 -11 -18 -11 -32 0 -16
4 -23 11 -18 7 4 10 -1 7 -12 -2 -10 -11 -20 -19 -22 -13 -2 -19 9 -26 45 -7
41 -9 33 -9 -60 0 -60 3 -100 7 -90 4 10 8 35 8 56 1 30 5 37 21 37 18 0 20
-7 20 -70 0 -43 4 -70 11 -70 5 0 8 4 5 8 -3 5 -1 22 4 38 7 24 8 25 9 7 1
-22 5 -23 70 -23 l70 0 -6 36 c-6 37 -6 37 26 32 29 -4 32 -3 26 16 -4 12 -7
29 -6 40 0 10 -9 20 -20 23 -19 5 -19 6 -2 18 15 11 65 26 90 27 5 0 18 4 31
9 13 5 22 5 22 -1 0 -6 9 -10 20 -10 19 0 20 -7 20 -95 0 -79 -3 -95 -15 -95
-11 0 -15 -8 -13 -28 3 -27 3 -27 -64 -30 -38 -2 -68 -7 -68 -12 0 -6 -7 -10
-15 -10 -8 0 -15 5 -15 11 0 5 5 7 10 4 6 -4 10 8 10 29 0 35 -12 47 -26 25
-3 -6 0 -15 7 -20 10 -6 11 -9 2 -10 -7 -1 -17 -3 -23 -4 -5 -1 -26 -3 -45 -4
-19 0 -35 -6 -35 -12 0 -5 5 -7 10 -4 20 12 51 -6 49 -28 0 -12 0 -24 1 -27 1
-3 4 -17 6 -32 2 -19 -2 -28 -12 -28 -8 0 -14 -6 -14 -12 0 -8 -7 -5 -15 6
-14 19 -15 19 -15 -7 0 -30 -3 -32 -32 -16 -15 8 -19 8 -14 0 5 -7 -8 -11 -38
-11 -39 0 -46 3 -46 19 0 11 -5 23 -12 27 -7 4 -8 3 -4 -4 4 -7 1 -12 -6 -12
-9 0 -9 -3 2 -10 17 -11 17 -11 -25 -16 -16 -2 -35 2 -42 8 -10 8 -13 6 -13
-6 0 -9 -7 -16 -16 -16 -14 0 -14 2 -3 16 7 9 15 26 16 37 2 12 9 26 15 32 8
7 9 6 4 -2 -5 -9 -2 -11 8 -7 27 10 7 24 -33 21 -30 -2 -37 -5 -33 -20 5 -19
22 -24 22 -5 0 6 3 8 7 5 4 -4 -3 -21 -15 -37 -12 -16 -22 -34 -22 -40 0 -15
278 -10 288 5 4 6 17 16 30 23 20 11 22 10 22 -13 0 -14 6 -25 13 -25 9 0 8
-3 -2 -9 -7 -5 -10 -14 -7 -20 5 -7 -2 -11 -18 -11 -17 0 -26 5 -26 16 0 10 6
14 15 10 9 -3 15 0 15 9 0 16 -9 18 -34 9 -9 -3 -13 -10 -11 -15 3 -5 -5 -11
-19 -15 -29 -7 -280 0 -342 10 -31 5 -41 3 -41 -7 0 -9 9 -12 24 -9 17 3 23 0
23 -13 0 -11 -6 -15 -18 -11 -9 3 -29 8 -45 12 -31 7 -36 20 -9 27 18 4 19 4
-43 24 -16 5 -29 15 -27 21 1 7 -8 12 -20 12 -19 0 -20 -2 -8 -10 21 -14 -3
-13 -35 2 -27 12 -31 23 -14 34 19 11 -12 23 -46 18 -27 -5 -28 -4 -12 9 23
19 22 30 -2 22 -13 -4 -23 0 -29 11 -6 11 -12 13 -16 6 -5 -8 -13 -6 -26 6
-25 20 -26 41 -2 37 9 -2 17 -4 17 -5 0 -1 15 -3 33 -6 18 -2 32 1 32 7 0 5 4
8 9 5 5 -4 7 8 4 25 -3 21 -1 29 6 24 7 -3 11 2 11 14 0 12 -4 21 -9 21 -10 0
-25 -47 -22 -67 1 -6 -4 -15 -10 -19 -9 -5 -10 -2 -6 10 4 10 1 19 -8 22 -8 4
-15 10 -15 16 0 5 4 7 9 4 14 -9 0 42 -15 55 -11 9 -14 6 -14 -17 0 -22 3 -26
10 -14 7 11 10 12 10 2 0 -8 -9 -16 -20 -19 -11 -3 -20 -12 -20 -19 0 -9 -12
-14 -35 -14 -35 0 -40 -5 -29 -34 9 -23 24 -19 25 7 1 20 2 20 6 2 3 -11 12
-28 20 -37 8 -9 12 -22 8 -27 -8 -14 8 -14 22 0 17 17 33 1 33 -32 0 -28 2
-29 23 -18 20 11 21 11 9 -4 -11 -13 -8 -17 22 -28 20 -7 36 -17 36 -21 0 -5
16 -7 35 -5 31 4 35 2 35 -19 0 -15 6 -24 15 -24 10 0 15 -10 15 -29 0 -24 5
-29 31 -35 50 -10 89 -7 89 7 0 8 3 8 9 -2 5 -8 7 -20 4 -28 -14 -36 52 -42
335 -31 48 1 28 15 -25 17 -31 1 -60 4 -65 7 -15 9 20 34 48 34 16 0 36 10 51
26 23 25 25 25 43 9 18 -16 19 -16 25 18 4 22 14 37 26 40 19 5 44 -15 32 -26
-3 -4 -1 -7 5 -7 15 0 16 17 2 25 -13 8 -13 45 0 45 6 0 10 12 10 28 0 21 -2
24 -10 12 -8 -12 -10 -12 -10 5 0 11 -3 36 -6 56 l-6 36 66 1 66 1 0 -50 c0
-31 -4 -48 -10 -44 -5 3 -10 -3 -10 -15 0 -12 5 -18 10 -15 6 3 10 -3 10 -15
0 -17 -4 -19 -26 -14 -19 5 -25 4 -20 -5 4 -6 13 -11 19 -11 7 0 21 -14 32
-30 11 -16 27 -30 35 -29 10 0 11 2 3 6 -7 2 -13 9 -13 14 0 6 5 7 10 4 6 -3
10 -2 10 3 0 6 -7 12 -15 16 -12 4 -15 24 -15 86 0 64 3 80 15 80 12 0 15 -13
15 -60 0 -47 3 -58 14 -54 11 4 16 -8 23 -48 l8 -53 -35 -5 c-26 -4 -31 -7
-20 -14 23 -16 58 -16 71 0 6 8 9 14 6 14 -3 0 -1 14 5 31 14 41 27 20 21 -35
-4 -33 -2 -44 11 -49 24 -9 26 3 10 68 -17 75 -17 75 1 75 13 0 15 -7 9 -35
-6 -34 -5 -35 25 -35 28 0 31 -3 31 -29 0 -16 3 -37 7 -47 7 -19 25 -19 -227
2 -41 4 -81 11 -88 17 -7 5 -15 7 -19 3 -3 -3 0 -6 8 -7 8 0 6 -4 -6 -9 -17
-7 -16 -9 10 -10 100 -5 169 -12 249 -25 50 -8 100 -13 111 -11 11 2 25 -1 31
-6 7 -5 36 -11 65 -14 l54 -5 -32 15 c-28 13 -32 18 -24 38 5 15 16 23 30 22
11 -1 21 2 21 6 0 5 19 6 43 4 33 -3 36 -2 12 4 -26 6 -44 32 -22 32 42 0 42
0 27 -10 -11 -7 -8 -10 16 -10 17 0 37 7 44 15 10 13 9 15 -9 15 -12 0 -19 -4
-16 -10 3 -5 2 -10 -4 -10 -5 0 -11 4 -13 9 -1 5 -18 11 -35 14 -26 4 -33 2
-33 -12 0 -12 -8 -16 -27 -15 -42 2 -43 3 -43 23 0 16 9 21 45 27 25 3 49 4
52 1 3 -4 14 -2 24 4 16 8 17 13 6 29 -6 11 -22 20 -34 20 -21 0 -23 5 -24 63
-1 34 -1 65 0 70 0 4 -10 7 -24 7 -15 0 -25 6 -25 14 0 10 17 14 65 14 62 0
84 -11 48 -22 -16 -5 -17 -15 -13 -81 3 -47 10 -79 18 -84 7 -4 14 -18 15 -30
1 -18 6 -21 25 -16 19 5 25 0 35 -25 9 -23 17 -30 37 -29 23 2 23 2 3 6 -44 8
-25 28 26 28 48 0 50 -1 56 -33 3 -18 14 -36 23 -39 9 -4 23 -13 30 -20 16
-15 152 -18 152 -4 0 6 -27 8 -60 6 -54 -3 -60 -1 -60 16 0 15 -7 19 -33 19
-29 0 -33 3 -35 30 -2 25 1 30 15 28 10 -2 17 2 15 10 -1 6 2 12 8 12 5 0 10
8 10 18 0 13 2 14 9 3 10 -16 31 -6 31 14 0 7 6 16 13 18 7 3 4 6 -7 6 -15 1
-16 3 -6 16 7 9 19 14 27 11 7 -3 13 -1 13 4 0 5 8 11 18 13 9 3 -11 5 -45 6
-49 1 -63 4 -63 16 0 12 15 15 71 15 l71 0 -7 -30 c-6 -25 -4 -30 13 -30 25 0
34 -10 22 -25 -10 -12 -2 -55 11 -55 5 0 6 -6 3 -14 -6 -16 -40 -10 -41 7 0 7
-4 20 -8 30 -4 10 -3 17 5 17 6 0 9 4 6 9 -3 5 -15 7 -27 4 -11 -3 -16 -9 -10
-12 5 -4 13 -25 17 -48 l6 -42 -56 3 c-55 3 -81 -6 -50 -18 9 -3 42 -6 74 -6
51 0 61 3 78 25 11 14 23 21 26 16 3 -5 0 -11 -8 -14 -11 -4 -13 -20 -9 -67 5
-60 5 -61 -18 -56 -76 16 -140 17 -154 2 -13 -13 -9 -15 43 -21 154 -16 319
-37 335 -41 12 -4 17 0 17 13 0 17 -13 21 -105 32 l-105 13 0 57 c0 31 5 62
11 68 7 7 8 19 4 30 -4 10 -9 23 -11 28 -1 6 -5 18 -9 28 -4 10 -3 17 4 17 7
0 16 10 21 23 6 16 9 3 9 -50 1 -46 5 -75 13 -79 9 -6 5 -10 -12 -15 -25 -7
-25 -7 3 -8 l28 -1 -6 58 c-9 87 -17 135 -25 152 -4 8 -18 47 -30 85 -12 39
-26 72 -30 75 -8 5 -13 41 -11 68 1 6 10 12 21 12 15 0 20 -7 22 -27 1 -16 2
-35 4 -43 1 -8 2 -23 3 -33 1 -10 5 -15 11 -12 12 7 18 -24 37 -175 3 -25 8
-47 11 -50 5 -5 -3 102 -15 209 -4 36 -3 52 4 48 6 -4 13 -34 17 -66 4 -33 10
-63 15 -65 4 -3 3 20 -3 50 -6 37 -6 58 1 65 7 7 14 -10 22 -58 7 -37 14 -75
15 -84 2 -9 -1 -24 -6 -33 -5 -9 -5 -16 0 -16 5 0 9 -6 9 -12 0 -7 3 -32 7
-55 6 -35 5 -43 -7 -43 -9 0 -16 8 -15 18 0 39 -11 134 -17 140 -10 10 -4
-130 7 -151 7 -13 21 -17 61 -16 29 0 46 3 40 6 -7 2 -13 11 -13 18 0 8 -7 18
-16 23 -9 5 -16 21 -16 36 0 14 -4 29 -9 32 -5 3 -9 16 -9 30 0 22 17 30 60
26 10 -1 9 37 -1 43 -5 4 -9 2 -9 -3 0 -5 -13 -12 -29 -14 -28 -4 -29 -2 -33
34 -3 34 -1 39 17 37 41 -3 65 1 65 11 0 5 -3 9 -7 9 -5 -1 -25 -1 -45 0 -47
1 -51 25 -7 40 43 15 47 14 53 -11 2 -13 2 45 0 127 -6 160 -10 226 -18 263
-3 15 0 25 9 29 18 6 21 113 4 113 -8 0 -9 -14 -5 -44 5 -30 3 -47 -5 -52 -9
-5 -10 1 -5 21 7 26 5 27 -19 21 -21 -5 -27 -2 -37 19 -9 19 -18 25 -42 24
-27 0 -28 -2 -11 -10 15 -7 10 -8 -20 -4 l-40 4 35 -13 c24 -9 30 -15 20 -19
-8 -3 -3 -4 13 -1 15 4 27 2 27 -4 0 -6 7 -18 16 -27 13 -13 19 -13 33 -3 14
11 14 11 3 -3 -6 -9 -33 -19 -60 -22 -26 -4 -57 -9 -69 -13 -21 -6 -23 -3 -23
34 0 30 4 42 18 45 12 3 10 5 -7 6 -22 1 -23 -1 -18 -51 16 -161 31 -258 41
-259 6 -1 30 -2 53 -3 48 -2 58 -9 50 -31 -9 -22 -27 -19 -27 5 0 11 -5 20
-11 20 -6 0 -8 -7 -5 -15 6 -17 -36 -40 -66 -36 -10 1 -18 -3 -18 -8 0 -6 -5
-11 -11 -11 -7 0 -9 12 -7 31 3 18 2 68 -3 113 -10 112 -38 354 -45 395 -5 31
-6 32 -19 15 -13 -17 -14 -16 -15 17 0 19 -5 61 -11 93 -8 44 -7 61 2 72 13
16 13 87 -1 164 l-8 45 1 -42 c1 -48 -9 -67 -17 -32 -8 33 -3 99 7 99 5 0 5 5
2 10 -4 6 -11 8 -16 5 -8 -6 -13 21 -10 55 1 11 0 12 -7 3 -6 -9 -17 -10 -42
-3 -18 5 -36 8 -38 5 -6 -5 44 -25 62 -25 14 0 26 -50 26 -107 0 -29 -2 -31
-27 -24 -25 7 -29 13 -35 66 -10 77 -20 84 -14 9 2 -32 5 -64 5 -71 1 -6 19
-14 41 -18 37 -6 40 -9 40 -38 0 -18 3 -49 6 -69 6 -37 6 -38 -24 -38 -38 0
-42 6 -50 78 l-7 57 -5 -50 c-3 -27 -1 -59 4 -70 6 -11 11 -45 12 -76 1 -31 7
-66 13 -78 9 -16 8 -27 -4 -50 -8 -17 -15 -37 -15 -47 0 -12 -6 -15 -24 -10
-15 4 -26 1 -29 -7 -4 -9 -6 -9 -6 1 -2 21 -31 13 -31 -8 0 -11 4 -20 9 -20 4
0 6 -11 3 -25 -3 -16 0 -25 9 -25 7 0 9 3 5 7 -3 4 4 13 16 21 13 7 15 11 6 8
-12 -3 -18 0 -18 9 0 8 4 15 9 15 5 0 17 3 27 7 13 5 16 2 12 -8 -3 -8 1 -20
8 -27 12 -11 14 -9 14 9 0 12 3 20 6 17 3 -3 7 -57 9 -119 2 -70 7 -115 14
-117 6 -2 11 -19 11 -37 0 -19 5 -37 10 -40 7 -4 9 7 6 32 -3 21 -8 80 -11
132 -5 84 -4 93 10 87 9 -3 25 -6 35 -6 16 0 20 -11 26 -70 7 -78 6 -86 -18
-83 -9 1 -22 -4 -28 -12 -10 -12 -9 -15 6 -17 39 -3 43 -3 48 -8 3 -3 7 -28 9
-55 3 -28 8 -58 12 -68 6 -15 3 -17 -26 -12 -42 8 -59 22 -59 49 0 17 -2 18
-10 6 -14 -22 -12 -40 5 -40 10 0 15 -10 15 -30 0 -36 -16 -39 -32 -5 -6 14
-20 25 -30 25 -11 0 -17 -3 -15 -7 3 -5 -23 -7 -57 -6 -34 1 -66 -1 -72 -5
-12 -9 7 -225 24 -265 16 -38 15 -44 -7 -50 -14 -3 -17 0 -13 15 6 25 -25 58
-55 58 -24 0 -32 15 -11 22 8 3 6 7 -5 11 -9 3 -23 -1 -32 -9 -13 -14 -15 -13
-15 5 0 12 -6 21 -15 21 -9 0 -16 10 -16 23 -1 12 -2 33 -3 47 -1 18 4 25 17
24 12 -1 16 3 13 15 -3 9 -7 54 -11 101 -3 47 -8 114 -10 150 -3 36 -12 153
-20 260 -8 107 -17 227 -20 265 -3 39 -12 169 -21 290 -8 121 -17 244 -19 274
-5 59 -11 73 -26 51 -6 -11 -11 -12 -16 -4 -5 7 -16 8 -28 3z m37 -291 c17 -2
22 -12 25 -47 4 -37 2 -43 -12 -37 -9 3 -22 6 -30 6 -15 0 -27 66 -17 100 6
24 7 24 10 3 2 -13 12 -23 24 -25z m26 -231 c3 -32 0 -37 -17 -37 -21 0 -23 3
-26 52 -2 23 2 27 19 24 16 -2 22 -11 24 -39z m12 -79 c0 -13 3 -34 7 -47 6
-22 4 -23 -23 -17 -35 9 -31 4 -39 49 -7 36 -7 37 24 37 25 0 31 -4 31 -22z
m409 -53 c6 -3 13 -27 16 -53 4 -26 9 -55 11 -64 4 -15 0 -17 -26 -14 -17 2
-33 6 -37 9 -3 3 -8 35 -10 71 -5 63 -5 65 16 61 11 -2 25 -6 30 -10z m-397
-75 c9 -51 5 -60 -26 -60 -18 0 -25 7 -30 31 -12 64 -9 78 21 75 24 -3 29 -9
35 -46z m8 -139 l0 -58 -30 5 c-29 4 -30 6 -30 61 l0 58 30 -5 c29 -4 30 -6
30 -61z m396 63 c18 -5 23 -17 31 -75 l9 -69 -32 0 c-38 0 -45 15 -49 97 -2
55 1 58 41 47z m-525 -137 l0 -22 9 23 c6 14 17 22 32 21 15 -1 18 -3 7 -6
-10 -2 -19 -12 -22 -23 -3 -13 -1 -17 9 -13 8 3 14 1 14 -5 0 -14 -38 -22 -44
-8 -3 8 -5 8 -5 0 -1 -7 10 -19 23 -28 14 -8 23 -23 21 -33 -1 -10 0 -22 4
-28 18 -31 10 -44 -37 -54 -26 -5 -48 -8 -49 -7 -2 1 -5 49 -7 107 -4 79 -3
93 4 56 10 -56 23 -76 20 -32 -4 56 0 86 10 80 6 -3 10 -16 11 -28z m138 -34
c-1 -21 1 -48 5 -60 7 -21 4 -23 -28 -23 -33 0 -36 2 -36 29 0 16 -3 43 -6 60
-6 30 -6 31 30 31 36 0 37 -1 35 -37z m662 -95 c0 -13 2 -35 4 -50 2 -19 -1
-28 -10 -28 -9 0 -15 15 -18 43 -3 35 -4 33 -4 -13 0 -73 4 -82 28 -69 17 8
19 6 19 -21 0 -25 -4 -30 -25 -30 -18 0 -25 5 -25 20 0 11 -5 20 -11 20 -6 0
-9 -8 -6 -19 3 -14 -3 -21 -29 -29 -40 -12 -39 -12 -49 99 l-6 76 58 10 c32 5
61 11 66 12 4 0 7 -9 8 -21z m-655 -12 c1 -1 4 -27 7 -58 l6 -58 -35 0 c-32 0
-34 2 -34 34 0 18 -3 48 -6 65 -6 31 -6 31 27 25 19 -4 35 -7 35 -8z m-122
-61 c5 0 12 -10 17 -22 7 -20 5 -23 -15 -23 -17 0 -25 -7 -28 -25 -3 -14 -1
-25 3 -25 5 0 9 7 9 15 0 8 5 15 10 15 6 0 10 -4 10 -10 0 -5 9 -10 19 -10 15
0 21 8 24 33 3 27 4 26 5 -11 1 -27 -2 -41 -8 -37 -6 4 -10 -8 -10 -29 0 -19
-5 -38 -11 -41 -6 -4 -8 -13 -5 -20 3 -8 1 -16 -5 -19 -5 -2 -4 -3 3 -2 7 2
13 11 13 21 0 10 6 20 13 23 7 2 12 -5 12 -16 0 -11 4 -22 10 -24 5 -1 7 -12
4 -23 -4 -17 -12 -20 -45 -17 l-39 4 -1 57 c-1 31 -1 62 0 70 2 7 -2 10 -8 6
-6 -3 -11 -17 -11 -31 0 -14 -4 -22 -10 -19 -5 3 -10 0 -10 -9 0 -8 5 -16 10
-18 6 -2 12 -14 15 -28 16 -85 15 -83 51 -77 23 4 34 2 34 -6 0 -7 3 -23 7
-36 6 -22 4 -23 -25 -19 -28 4 -32 1 -38 -25 -4 -22 -8 -26 -15 -16 -5 8 -9 9
-9 3 0 -6 3 -14 7 -17 3 -4 8 -19 9 -34 7 -70 28 -143 40 -143 8 0 14 4 14 9
0 5 3 16 6 25 4 12 0 16 -15 16 -18 0 -21 6 -21 39 0 22 -2 45 -5 53 -3 7 -1
19 4 27 8 12 12 12 25 2 9 -7 13 -17 10 -22 -3 -5 1 -9 8 -9 8 0 9 -3 3 -8
-20 -14 -17 -35 5 -29 11 3 20 1 20 -4 0 -5 -7 -9 -15 -9 -21 0 -19 -17 5 -37
31 -27 24 -50 -12 -44 -5 0 -8 -3 -8 -8 0 -5 -11 -12 -25 -15 -25 -6 -26 -8
-19 -66 6 -52 4 -60 -10 -60 -9 0 -16 3 -16 8 0 4 -15 7 -32 7 l-33 0 0 57 c0
31 -3 54 -7 51 -5 -2 -8 2 -9 9 -1 26 -6 74 -13 141 -8 66 -7 67 17 67 16 0
28 -8 35 -25 6 -14 16 -25 22 -25 7 0 8 5 3 13 -4 6 -8 35 -9 62 -3 83 -7 93
-14 35 -4 -41 -8 -50 -14 -35 -4 11 -12 28 -17 37 -12 24 -12 28 7 28 15 0 16
13 12 115 -4 91 -3 115 8 115 7 0 15 4 18 9 3 5 -2 8 -12 7 -12 -1 -16 5 -14
19 5 23 33 46 47 37 5 -4 14 -7 19 -7z m90 -74 c3 -5 14 -7 25 -4 15 4 19 -3
24 -43 3 -26 3 -54 0 -61 -5 -14 -49 -18 -56 -5 -12 18 -19 122 -9 122 6 0 13
-4 16 -9z m-244 -41 c0 -11 -3 -20 -7 -21 -5 0 -23 -2 -40 -3 -22 -3 -33 1
-33 9 0 17 32 29 40 15 5 -8 9 -6 13 4 9 23 27 20 27 -4z m969 -107 c2 -60 1
-63 -21 -61 -13 1 -39 -4 -58 -10 -19 -6 -48 -10 -65 -9 -27 2 -30 6 -31 39
-1 33 1 36 32 41 17 3 56 4 86 1 32 -2 46 -1 34 4 -18 8 -18 9 -3 15 21 8 22
27 2 27 -8 0 -15 7 -15 15 0 8 5 15 10 15 6 0 9 3 9 8 -1 4 0 12 1 17 5 22 17
-43 19 -102z m-1416 55 c48 -3 50 -4 27 -15 -18 -9 -20 -12 -7 -12 38 -2 14
-20 -30 -24 -41 -3 -37 -4 22 -6 118 -5 129 -17 18 -19 l-103 -2 4 57 c5 68 7
76 13 46 4 -19 12 -22 56 -25z m447 -17 c0 -35 -3 -39 -32 -45 -17 -3 -32 -5
-34 -4 -1 2 -5 19 -9 39 -6 35 -6 36 25 37 18 0 35 3 38 6 10 11 12 6 12 -33z
m542 8 c52 4 74 -12 92 -64 l15 -46 -34 7 c-52 9 -69 -13 -62 -82 3 -32 2 -52
-4 -49 -5 4 -6 -3 -1 -17 11 -30 4 -58 -14 -58 -8 0 -14 -5 -14 -11 0 -5 5 -7
10 -4 6 4 17 1 25 -5 8 -7 22 -10 30 -6 10 4 15 -1 15 -15 0 -17 -5 -20 -21
-16 -15 4 -19 3 -12 -4 15 -15 5 -43 -19 -58 -17 -11 -22 -10 -29 1 -7 10 -9
10 -10 -2 -1 -8 -5 7 -10 34 -4 27 -4 57 1 65 8 17 7 71 -2 87 -10 15 -30 233
-23 244 3 6 12 7 18 3 6 -4 28 -6 49 -4z m-902 -24 c0 -8 -9 -15 -19 -15 -10
0 -21 7 -25 15 -4 11 1 15 19 15 16 0 25 -6 25 -15z m660 -26 c0 -16 -5 -20
-27 -17 -14 2 -28 8 -30 15 -4 10 5 14 50 22 4 0 7 -8 7 -20z m410 4 c0 -32
-69 -22 -70 10 0 4 16 7 35 7 27 0 35 -4 35 -17z m-704 -48 c1 -14 5 -36 8
-50 6 -23 4 -25 -33 -25 l-38 0 -1 44 c-1 43 0 45 31 49 18 2 32 5 32 5 0 1 1
-9 1 -23z m-391 5 c-7 -11 -135 -9 -135 3 0 4 32 7 71 7 44 0 68 -4 64 -10z
m1103 -43 c6 -29 12 -67 12 -85 0 -18 5 -32 12 -32 12 0 -21 -29 -34 -30 -14
0 -9 70 5 71 9 0 9 2 0 6 -8 3 -11 14 -7 29 5 18 2 24 -10 24 -12 0 -16 10
-16 35 0 54 24 43 38 -18z m-834 21 c11 -42 7 -58 -14 -58 -17 0 -20 7 -20 40
0 45 23 57 34 18z m390 6 c11 -28 7 -52 -9 -50 -19 3 -21 6 -29 39 -5 22 -3
27 13 27 10 0 22 -7 25 -16z m354 -32 c10 10 16 8 29 -5 10 -10 13 -17 5 -17
-6 0 -9 -7 -6 -15 5 -11 -1 -15 -21 -15 -14 0 -24 -4 -21 -9 3 -5 15 -7 27 -4
24 7 39 -11 39 -44 0 -17 -6 -23 -21 -23 -11 0 -18 4 -15 9 4 5 -8 4 -24 -2
-40 -15 -46 -5 -49 75 -2 66 15 94 34 57 9 -15 13 -17 23 -7z m-729 -127 c4
-41 3 -71 0 -67 -4 4 -9 25 -10 47 -3 31 -8 42 -28 51 -25 11 -25 12 -3 18 12
4 22 15 22 23 0 9 3 13 7 10 3 -4 9 -41 12 -82z m111 20 c0 -25 -4 -45 -9 -45
-6 0 -7 -16 -4 -35 5 -29 3 -34 -10 -29 -16 6 -20 19 -33 103 -6 43 -6 44 20
39 14 -3 23 -1 20 3 -3 5 0 9 5 9 6 0 11 -20 11 -45z m-357 -5 c8 0 7 -4 -2
-9 -12 -8 -12 -12 2 -25 11 -12 17 -13 20 -3 3 6 5 -6 6 -28 0 -22 -4 -49 -9
-60 -9 -22 -9 -22 -16 15 -2 13 -8 27 -13 30 -5 3 -10 28 -11 55 -2 59 1 79 7
48 2 -13 10 -23 16 -23z m702 10 c4 -6 11 -8 16 -4 6 3 22 -4 35 -17 19 -18
23 -19 18 -6 -3 10 -1 17 5 17 19 0 13 -50 -6 -51 -10 0 -26 -2 -35 -4 -11 -2
-19 6 -23 22 -3 14 -8 23 -10 21 -3 -2 -1 -18 4 -35 5 -17 5 -46 1 -64 -7 -30
-8 -31 -11 -9 -3 28 -6 61 -8 103 -2 46 -21 30 -23 -20 -1 -46 -2 -46 -5 -9
-3 21 -2 44 1 52 6 16 32 19 41 4z m421 -96 c3 -18 1 -25 -8 -21 -7 2 -12 12
-12 21 2 14 -1 15 -14 4 -13 -11 -15 -10 -9 12 4 14 7 32 7 40 0 22 30 -25 36
-56z m-321 14 c2 -7 6 -35 9 -63 6 -64 6 -64 16 -40 8 19 9 19 9 -4 1 -17 -3
-22 -15 -17 -9 3 -20 6 -25 6 -5 0 -9 6 -9 14 0 8 -7 16 -15 20 -8 3 -15 1
-15 -4 0 -6 -11 -10 -25 -10 -29 0 -33 15 -7 29 9 6 11 11 5 11 -21 0 -14 30
7 30 10 0 24 9 30 20 12 23 29 26 35 8z m-888 -118 c1 -14 -4 -20 -18 -20 -24
0 -25 27 -1 33 9 3 17 5 17 6 1 0 1 -8 2 -19z m-287 -4 c0 -15 -48 -28 -56
-15 -9 15 6 29 32 29 14 0 24 -6 24 -14z m50 7 c0 -5 11 -8 24 -8 13 0 22 4
19 8 -3 4 28 7 69 5 76 -3 95 -18 36 -29 -18 -4 -25 -7 -15 -8 17 -1 25 -21 8
-21 -5 0 -11 -9 -14 -20 -3 -13 -13 -20 -29 -19 -32 0 -107 16 -85 18 9 0 17
8 17 16 0 11 -5 12 -26 5 -20 -8 -25 -7 -21 2 2 7 -3 18 -11 24 -8 6 -12 16
-8 22 8 13 36 16 36 5z m-159 -15 c22 -6 39 -17 39 -25 0 -16 -3 -16 -51 -2
-21 7 -40 18 -43 25 -7 17 5 17 55 2z m103 -24 c9 -3 16 -12 16 -20 0 -16 -42
-4 -48 14 -4 13 8 15 32 6z"/>
<path d="M2092 402 c2 -45 4 -78 6 -72 8 23 22 7 22 -25 0 -19 4 -35 9 -35 6
0 12 -21 14 -47 l3 -48 2 48 c1 26 7 47 12 47 6 0 10 23 10 50 0 50 0 50 -33
50 -32 0 -32 1 -29 39 2 22 -1 48 -7 58 -9 14 -10 -1 -9 -65z"/>
<path d="M484 2012 c4 -7 15 -12 25 -12 9 0 22 -5 29 -12 9 -9 12 -8 12 5 0
10 -8 17 -19 17 -11 0 -27 3 -37 7 -12 4 -15 3 -10 -5z"/>
<path d="M965 1937 c-4 -12 -8 -30 -9 -40 -2 -11 -9 -22 -16 -27 -8 -5 -10
-15 -6 -26 6 -16 10 -12 22 21 9 22 18 48 21 58 3 9 10 17 15 17 5 0 6 -5 2
-12 -4 -7 -3 -8 4 -4 16 10 15 14 -7 25 -15 9 -20 6 -26 -12z"/>
<path d="M2878 1885 c4 -33 5 -34 28 -18 29 19 32 28 4 13 -17 -9 -20 -8 -20
9 0 11 -4 22 -8 25 -4 2 -6 -11 -4 -29z"/>
<path d="M990 1890 c-3 -36 1 -62 12 -83 17 -32 19 -12 4 49 -9 37 -15 50 -16
34z"/>
<path d="M1529 1861 c7 -5 10 -14 7 -20 -4 -6 -4 -11 1 -11 4 0 19 -3 33 -5
l25 -6 -25 12 c-23 10 -24 12 -6 18 18 7 18 8 -5 14 -34 9 -47 8 -30 -2z"/>
<path d="M1598 1810 c-15 -17 -15 -19 5 -24 12 -3 29 -6 37 -6 12 1 12 3 -2
14 -10 7 -15 15 -12 18 3 4 1 8 -4 11 -4 4 -16 -2 -24 -13z"/>
<path d="M1660 1765 c-1 -5 -2 -14 -1 -19 1 -5 -9 -6 -23 -4 -14 3 -23 1 -20
-3 3 -5 13 -9 24 -9 10 0 20 -6 23 -14 5 -11 -1 -12 -30 -4 -19 5 -37 7 -41 4
-3 -3 2 -6 12 -6 11 0 15 -5 10 -12 -4 -7 -4 -10 1 -6 4 4 14 1 22 -7 8 -8 18
-15 23 -15 13 0 20 44 11 75 -5 17 -10 26 -11 20z"/>
<path d="M2857 1689 l-138 -71 2 -56 c1 -32 8 -73 15 -92 13 -33 13 -31 8 35
-3 39 -7 77 -9 85 -2 10 16 25 53 43 164 81 212 108 212 117 0 13 14 19 -143
-61z"/>
<path d="M2530 1670 c-13 -9 -13 -10 0 -11 8 0 -4 -9 -26 -19 -23 -10 -45 -23
-48 -29 -11 -17 10 -13 24 4 7 8 19 15 27 15 9 0 13 -6 9 -15 -3 -8 -1 -15 3
-15 5 0 12 6 14 13 3 6 6 8 6 2 1 -16 -12 -30 -43 -43 -16 -7 -26 -16 -22 -19
3 -4 12 -1 18 5 7 7 18 12 25 12 17 0 17 -27 1 -33 -10 -4 -10 -6 0 -6 6 -1
12 -10 12 -21 0 -11 7 -23 15 -26 11 -5 13 -10 5 -19 -7 -8 -5 -12 6 -12 13 0
15 10 9 71 -14 138 -19 156 -35 146z"/>
<path d="M2980 1665 c-13 -16 -7 -45 10 -45 5 0 10 14 10 30 0 34 -3 36 -20
15z"/>
<path d="M2890 1640 c0 -56 12 -110 22 -104 11 7 0 114 -13 129 -5 5 -9 -5 -9
-25z"/>
<path d="M1251 1634 c-15 -33 -10 -39 12 -14 9 11 13 20 9 20 -4 0 0 5 8 10
13 8 13 10 -1 10 -9 0 -21 -12 -28 -26z"/>
<path d="M2811 1595 c2 -45 15 -108 19 -85 4 34 -2 106 -11 115 -5 5 -9 -6 -8
-30z"/>
<path d="M1206 1578 c-13 -66 -13 -88 0 -88 12 0 13 24 1 36 -7 7 10 45 25 55
5 3 3 11 -5 18 -12 9 -16 6 -21 -21z"/>
<path d="M1268 1573 c18 -7 15 -22 -5 -19 -10 2 -21 -2 -25 -8 -13 -18 -9 -26
10 -20 14 5 14 3 -2 -10 -11 -9 -15 -16 -9 -16 8 0 9 -9 3 -29 -6 -23 -5 -31
7 -35 20 -8 33 1 33 25 0 11 -5 17 -10 14 -15 -9 -6 35 14 74 16 30 16 31 -6
30 -13 0 -17 -3 -10 -6z"/>
<path d="M2358 1526 l-38 -33 6 -62 c6 -50 10 -61 23 -59 10 3 15 12 14 26 -2
12 2 22 7 22 6 0 10 -4 10 -10 0 -5 7 -10 15 -10 8 0 15 5 15 11 0 5 -4 7 -10
4 -5 -3 -10 -1 -10 4 0 6 -6 11 -14 11 -25 0 -25 57 1 95 13 19 22 35 21 35
-2 -1 -20 -16 -40 -34z"/>
<path d="M2910 1516 c-42 -18 -81 -31 -88 -28 -7 2 -12 -1 -12 -7 0 -6 -3 -10
-7 -10 -19 3 -31 -2 -36 -15 -5 -12 4 -11 47 4 29 10 61 23 72 28 10 6 40 18
67 28 26 9 47 21 47 25 0 13 -6 11 -90 -25z"/>
<path d="M1255 1410 c11 -5 14 -9 6 -9 -11 -1 -11 -4 -1 -16 14 -17 23 -13 27
13 1 13 -5 18 -25 19 -23 1 -24 1 -7 -7z"/>
<path d="M2960 1385 c-19 -8 -72 -28 -117 -45 -81 -31 -83 -32 -82 -63 l1 -32
7 29 c4 21 14 32 36 38 17 5 39 14 50 19 66 30 75 30 85 3 14 -35 12 -74 -2
-74 -9 0 -10 -2 -2 -8 6 -4 14 -17 18 -29 6 -17 3 -23 -8 -23 -9 0 -16 8 -17
18 0 14 -1 15 -7 1 -15 -34 -49 -66 -88 -81 l-42 -17 -6 43 c-4 23 -5 49 -3
57 2 8 2 11 0 6 -3 -4 -10 -4 -16 0 -6 4 -8 0 -4 -9 3 -9 11 -43 18 -77 13
-68 15 -70 93 -46 27 8 66 15 88 15 37 0 38 1 36 33 -2 17 -8 37 -14 42 -7 6
-14 24 -16 42 -3 23 0 33 12 36 9 2 17 11 17 20 0 9 -6 13 -15 10 -11 -5 -11
-7 0 -14 10 -7 9 -9 -4 -9 -26 0 -23 40 2 47 11 3 20 12 20 19 0 16 -16 19
-25 4 -8 -13 -25 -3 -25 16 0 8 9 14 19 14 18 0 38 17 30 25 -2 1 -20 -3 -39
-10z"/>
<path d="M108 1333 c-4 -38 0 -53 15 -70 11 -13 17 -23 13 -23 -5 0 -3 -7 4
-15 7 -8 21 -15 31 -15 11 0 19 -4 19 -8 0 -5 -13 -7 -30 -4 -29 4 -29 3 -25
-33 5 -33 3 -36 -10 -25 -9 7 -17 11 -19 9 -8 -10 -13 -99 -5 -99 5 0 9 6 9
14 0 8 6 17 13 19 10 4 10 6 0 6 -16 1 -17 31 -2 31 5 0 7 -5 3 -12 -5 -8 -2
-9 9 -5 21 8 21 6 0 -54 -19 -54 -29 -61 -36 -26 l-4 22 -2 -22 c0 -13 -5 -23
-10 -23 -5 0 -7 10 -3 22 3 14 2 19 -6 14 -27 -16 -2 -67 29 -59 14 4 15 -1 7
-44 -5 -26 -9 -56 -9 -65 0 -17 -2 -17 -32 -2 -18 9 -40 23 -49 32 -16 14 -18
13 -18 -2 0 -11 18 -25 50 -39 49 -21 50 -23 48 -59 -1 -21 2 -38 7 -38 9 -1
12 8 20 85 3 28 8 59 10 70 2 11 4 34 4 50 1 23 3 27 11 15 8 -11 9 -5 7 22
-3 21 0 35 4 32 5 -3 10 10 11 28 0 18 2 40 2 48 1 8 -1 17 -5 20 -4 3 -2 16
3 30 l9 25 13 -23 c6 -12 15 -20 18 -16 4 3 2 14 -3 23 -13 19 4 71 22 71 7 0
10 3 7 6 -4 3 -16 1 -27 -6 -25 -13 -27 -5 -6 16 8 9 15 24 15 34 0 16 -5 18
-30 14 -38 -8 -60 10 -60 47 0 48 -18 33 -22 -18z"/>
<path d="M1233 1343 c0 -16 -10 -34 -22 -42 -12 -7 -21 -20 -21 -28 0 -9 15 1
38 24 39 39 47 66 21 71 -9 2 -15 -7 -16 -25z"/>
<path d="M225 1340 c-8 -26 4 -48 16 -29 12 19 11 49 0 49 -5 0 -12 -9 -16
-20z"/>
<path d="M2913 1324 c4 -4 -6 -13 -23 -20 -19 -9 -30 -20 -30 -34 0 -23 5 -24
49 -9 22 8 31 17 31 34 0 13 -8 26 -17 29 -10 4 -14 4 -10 0z"/>
<path d="M1270 1305 c7 -8 17 -12 24 -8 6 4 24 6 41 4 16 -2 27 0 24 4 -4 3
-28 8 -54 10 -39 3 -45 2 -35 -10z"/>
<path d="M1504 1278 c7 -11 22 -18 41 -17 20 1 23 3 10 6 -45 10 -51 15 -30
23 17 8 17 9 -6 7 -23 -1 -25 -4 -15 -19z"/>
<path d="M1252 1259 c-10 -27 -14 -31 -22 -19 -7 11 -10 7 -10 -17 0 -17 5
-35 10 -38 6 -4 9 -22 6 -41 -5 -27 -2 -34 10 -34 11 0 15 8 13 28 -1 15 1 43
5 63 4 20 6 48 4 64 l-3 28 -13 -34z"/>
<path d="M2527 1278 c5 -7 8 -19 7 -25 -1 -7 -2 -18 -3 -24 0 -6 -7 -9 -15 -6
-17 7 -32 -41 -17 -56 7 -7 8 -3 5 10 -4 15 1 22 18 28 44 14 58 15 58 5 0 -6
-7 -11 -15 -11 -31 -3 -35 -4 -35 -11 0 -5 2 -8 5 -8 3 0 19 0 36 0 26 0 30 3
27 22 -2 16 -12 25 -33 29 -16 4 -24 7 -17 8 9 1 10 6 2 20 -7 14 -6 21 3 24
6 3 1 6 -12 6 -17 1 -21 -2 -14 -11z"/>
<path d="M2823 1279 c-22 -8 -33 -49 -14 -49 5 0 18 -3 28 -6 15 -5 16 -4 3 6
-12 9 -9 10 15 5 26 -5 28 -5 13 7 -9 7 -18 20 -20 29 -2 13 -8 15 -25 8z"/>
<path d="M17 1249 c20 -22 21 -29 12 -84 -5 -33 -12 -71 -15 -85 -18 -77 -14
-89 32 -116 47 -28 72 -28 31 -1 -55 36 -55 37 -40 144 15 112 13 132 -19 152
l-23 14 22 -24z"/>
<path d="M2412 1233 c-6 -2 -10 -8 -8 -12 3 -4 -9 -16 -25 -26 -29 -19 -29
-22 -27 -90 2 -54 6 -70 18 -70 12 0 15 14 14 72 0 68 1 72 24 78 18 4 23 11
19 25 -3 10 0 21 7 24 6 2 7 4 1 4 -5 0 -16 -2 -23 -5z"/>
<path d="M1492 1197 c-25 -27 -32 -68 -8 -47 8 6 12 19 9 28 -3 11 -2 13 4 6
4 -6 41 -14 81 -18 62 -6 72 -5 72 8 0 9 8 16 18 17 23 1 -38 15 -102 23 -46
6 -54 4 -74 -17z"/>
<path d="M2437 1160 c-8 -33 4 -100 19 -100 10 0 11 6 4 26 -17 43 -13 67 10
61 26 -7 26 9 1 23 -26 14 -28 13 -34 -10z"/>
<path d="M1254 1104 c-12 -12 -24 -30 -28 -40 -6 -16 -5 -16 14 1 22 20 45 55
38 59 -2 1 -12 -8 -24 -20z"/>
<path d="M1508 1064 c-5 -4 -8 -16 -8 -26 0 -15 8 -18 44 -18 24 0 57 -3 73
-6 23 -5 32 -2 37 12 4 9 3 21 -2 26 -11 11 -135 22 -144 12z"/>
<path d="M1435 925 c0 -57 4 -108 8 -111 4 -4 7 2 7 13 0 30 63 47 144 39 65
-6 66 -6 66 17 0 22 -6 25 -52 31 -97 11 -108 9 -108 -20 0 -14 -4 -23 -10
-19 -6 3 -8 17 -6 31 4 21 2 24 -16 19 -17 -6 -19 -4 -13 16 5 13 15 30 24 36
14 11 13 12 -9 10 -20 -2 -25 2 -24 21 0 12 -2 22 -6 22 -4 0 -6 -47 -5 -105z"/>
<path d="M190 978 c-37 -25 -51 -68 -31 -92 6 -8 9 -20 6 -29 -5 -12 4 -15 47
-15 63 0 105 19 119 55 18 47 -11 87 -71 98 -27 5 -43 1 -70 -17z m111 -24
c22 -23 23 -27 8 -52 -20 -36 -58 -49 -94 -31 -41 20 -49 52 -22 83 30 34 76
34 108 0z"/>
<path d="M214 946 c-3 -8 -4 -25 -1 -38 4 -20 4 -20 6 5 1 31 26 46 44 27 10
-10 7 -12 -10 -7 -28 6 -29 3 -4 -22 19 -19 20 -19 38 2 10 11 13 17 7 14 -7
-4 -14 2 -17 13 -6 24 -55 28 -63 6z"/>
<path d="M1720 896 c0 -19 5 -38 10 -41 6 -4 10 8 10 29 0 19 -4 38 -10 41 -6
4 -10 -8 -10 -29z"/>
<path d="M2558 841 c3 -9 1 -12 -6 -7 -18 11 -118 -41 -148 -77 -25 -30 -26
-35 -20 -107 4 -52 3 -70 -4 -60 -8 12 -10 13 -10 1 0 -8 -7 -23 -17 -33 -21
-24 -9 -36 13 -13 17 17 18 17 25 -1 5 -13 8 -5 9 26 2 25 1 50 0 55 -1 6 -3
29 -5 53 -3 34 -1 42 13 42 13 0 14 2 4 9 -10 6 -4 16 23 39 44 40 52 40 26 3
-23 -31 -26 -41 -13 -41 4 0 16 14 25 30 26 43 71 64 124 56 38 -5 43 -3 43
13 0 15 -9 20 -44 22 -34 3 -42 1 -38 -10z"/>
<path d="M6 836 c3 -8 11 -13 17 -11 14 5 42 -14 50 -35 4 -10 6 -8 6 7 1 17
-8 27 -35 38 -45 18 -45 18 -38 1z"/>
<path d="M1538 843 c18 -2 45 -2 60 0 15 2 0 4 -33 4 -33 0 -45 -2 -27 -4z"/>
<path d="M590 792 c0 -45 11 -53 52 -41 16 4 30 3 33 -2 4 -5 11 -9 17 -9 6 0
6 6 -2 15 -7 9 -20 13 -27 10 -19 -7 -55 13 -47 27 4 7 9 6 15 -3 6 -10 9 -8
9 9 0 12 -4 22 -9 22 -5 0 -16 3 -25 6 -13 5 -16 -2 -16 -34z"/>
<path d="M1504 818 c-3 -5 28 -7 68 -7 75 2 69 6 -15 11 -27 2 -51 0 -53 -4z"/>
<path d="M1538 783 c18 -2 45 -2 60 0 15 2 0 4 -33 4 -33 0 -45 -2 -27 -4z"/>
<path d="M160 771 c0 -7 27 -11 72 -11 87 0 86 5 -4 15 -46 4 -68 3 -68 -4z"/>
<path d="M120 723 c1 -25 2 -26 14 -11 7 10 16 15 19 11 4 -3 7 1 7 10 0 10
-8 17 -20 17 -15 0 -20 -7 -20 -27z"/>
<path d="M173 730 c1 -19 16 -24 80 -23 9 0 17 -7 17 -14 0 -8 5 -11 10 -8 9
5 15 -24 11 -48 -1 -5 3 -6 9 -2 5 3 10 17 10 30 0 34 -44 65 -92 65 -24 0
-37 4 -33 10 3 6 2 10 -4 10 -5 0 -9 -9 -8 -20z"/>
<path d="M608 732 c-19 -4 -24 -27 -8 -37 6 -3 10 -1 10 6 0 10 3 10 12 1 16
-16 28 -15 28 2 0 19 -21 33 -42 28z"/>
<path d="M654 705 c0 -21 5 -36 14 -40 12 -4 13 -3 2 10 -8 10 -9 15 -1 15 13
0 9 43 -5 47 -5 2 -9 -13 -10 -32z"/>
<path d="M1797 732 c-5 -7 -13 -10 -18 -7 -5 4 -8 -11 -8 -32 2 -30 3 -32 6
-10 6 37 22 35 21 -3 -1 -25 -6 -32 -32 -38 -19 -5 -32 -16 -34 -28 -2 -13 0
-15 5 -7 9 13 53 7 53 -7 0 -10 -79 -18 -82 -8 -2 5 -9 -1 -16 -12 -11 -18
-10 -20 17 -20 16 0 32 6 35 13 4 9 8 9 11 1 3 -7 15 -10 25 -7 20 5 29 -12
10 -19 -5 -1 -6 -8 -2 -15 19 -30 27 8 22 107 -3 60 -9 100 -13 92z"/>
<path d="M88 672 c-5 -19 -12 -31 -18 -27 -5 3 -10 0 -10 -8 0 -8 -8 -18 -17
-21 -15 -6 -15 -8 -3 -16 12 -7 10 -14 -13 -38 -15 -15 -27 -37 -27 -48 0 -14
5 -10 17 14 8 18 18 30 21 28 2 -3 -1 -36 -7 -73 -7 -37 -14 -80 -17 -95 -4
-28 10 -39 19 -15 3 6 6 2 6 -10 1 -36 31 -29 31 7 0 33 29 232 34 237 2 2 20
-7 41 -21 21 -14 42 -23 47 -19 6 3 9 0 6 -8 -7 -21 -48 -24 -48 -4 0 15 -2
15 -17 -1 -11 -10 -16 -29 -15 -48 2 -21 0 -27 -6 -18 -7 10 -11 5 -16 -19 -3
-18 -4 -34 -1 -37 3 -3 5 2 5 12 0 9 5 14 10 11 6 -4 13 7 16 24 5 21 12 31
25 31 11 0 19 6 19 13 0 8 4 7 10 -3 6 -10 10 -11 10 -2 0 6 5 12 10 12 19 0
10 -28 -10 -33 -15 -4 -20 -14 -21 -44 -1 -21 -3 -30 -6 -20 -8 31 -30 20 -25
-14 3 -23 7 -27 14 -18 8 13 3 -42 -9 -83 -3 -12 1 -18 11 -18 16 0 19 15 17
75 -1 17 2 44 7 60 l9 30 7 -38 c5 -25 3 -44 -5 -53 -9 -11 -8 -14 5 -14 12 0
16 11 18 43 4 128 13 164 43 171 13 3 29 15 35 26 13 24 5 26 -16 5 -33 -32
-149 16 -140 58 2 9 0 15 -5 11 -5 -3 -9 -17 -9 -32 0 -38 -18 -15 -22 28 l-3
35 -7 -33z"/>
<path d="M580 675 c0 -10 10 -15 28 -15 26 1 26 1 8 15 -25 19 -36 19 -36 0z"/>
<path d="M800 670 c0 -5 14 -10 30 -10 17 0 30 5 30 10 0 6 -13 10 -30 10 -16
0 -30 -4 -30 -10z"/>
<path d="M0 650 c0 -15 7 -20 28 -20 21 0 24 2 12 10 -10 6 -11 10 -2 10 6 0
12 5 12 10 0 6 -11 10 -25 10 -18 0 -25 -5 -25 -20z"/>
<path d="M890 639 c0 -18 29 -44 60 -52 12 -3 19 -3 14 1 -5 4 -24 20 -41 36
-22 20 -33 25 -33 15z"/>
<path d="M762 555 c0 -19 4 -35 9 -35 5 0 9 9 9 19 0 11 3 26 6 35 4 10 1 16
-9 16 -10 0 -15 -10 -15 -35z"/>
<path d="M246 525 c-4 -11 1 -15 19 -15 18 0 23 4 19 15 -4 8 -12 15 -19 15
-7 0 -15 -7 -19 -15z"/>
<path d="M1547 523 c18 -2 50 -2 70 0 21 2 7 4 -32 4 -38 0 -55 -2 -38 -4z"/>
<path d="M749 508 c8 -11 9 -18 3 -18 -6 0 -10 -9 -9 -20 1 -11 6 -20 12 -20
16 0 12 47 -5 62 -12 11 -12 11 -1 -4z"/>
<path d="M1046 476 c3 -8 1 -17 -5 -21 -6 -3 -11 -1 -11 6 0 10 -3 10 -12 1
-16 -16 4 -37 26 -29 17 7 22 57 6 57 -5 0 -7 -6 -4 -14z"/>
<path d="M1228 467 c-16 -6 -28 -15 -28 -20 0 -5 6 -7 14 -4 10 4 16 -3 19
-21 l4 -27 2 28 c0 17 7 27 16 27 11 0 15 -12 15 -51 0 -36 -4 -49 -12 -46 -7
2 -12 13 -10 23 2 18 2 18 -8 1 -9 -14 -15 -15 -31 -6 -11 5 -25 8 -32 5 -9
-3 -9 -5 1 -5 17 -1 15 -21 -3 -21 -8 0 -15 4 -15 10 0 5 -13 8 -30 7 -38 -3
-40 -22 -2 -25 15 -1 50 -6 77 -10 79 -12 84 -9 81 52 -2 30 -7 59 -10 65 -4
6 0 11 11 12 16 0 16 1 -2 9 -24 10 -23 10 -57 -3z"/>
<path d="M828 438 c18 -18 -34 -63 -54 -47 -12 10 -13 9 -8 -5 3 -9 10 -16 15
-16 5 0 8 -9 6 -19 -1 -11 1 -20 6 -20 35 -3 38 -1 32 29 -6 26 -4 30 14 30
13 0 21 -7 22 -17 0 -15 2 -15 9 2 7 18 9 18 15 3 11 -28 33 -29 33 -2 0 13
-4 21 -9 18 -17 -10 -50 8 -59 32 -5 13 -15 24 -22 24 -9 0 -9 -3 0 -12z"/>
<path d="M1133 432 c-20 -15 -20 -19 -7 -36 12 -17 14 -18 14 -3 0 9 4 17 9
17 5 0 11 9 14 20 6 24 -1 25 -30 2z"/>
<path d="M1310 439 c0 -8 15 -9 46 -4 37 5 45 4 39 -7 -6 -10 -5 -11 6 0 22
20 48 14 55 -14 7 -27 19 -22 27 11 4 18 5 18 6 -2 1 -23 21 -33 21 -11 0 6 3
9 6 5 9 -9 -6 -48 -17 -42 -5 4 -9 1 -9 -4 0 -6 10 -11 23 -11 20 0 23 4 19
33 -3 26 0 34 12 34 17 0 22 -13 8 -19 -4 -1 -2 -14 5 -28 10 -19 13 -21 14
-7 2 21 2 54 0 67 -2 15 -261 13 -261 -1z"/>
<path d="M1590 436 c0 -8 5 -18 10 -21 6 -4 8 -11 5 -16 -4 -5 -1 -9 4 -9 12
0 14 20 5 44 -8 20 -24 21 -24 2z"/>
<path d="M756 428 c5 -8 0 -9 -15 -5 -16 4 -21 2 -17 -8 3 -8 0 -16 -7 -18 -7
-2 -9 -7 -6 -11 4 -4 13 -1 20 7 8 7 28 17 44 21 27 8 28 9 10 16 -29 12 -37
12 -29 -2z"/>
<path d="M1774 424 c4 -9 0 -27 -8 -39 -14 -21 -14 -23 5 -18 15 4 19 13 17
39 -1 19 -6 34 -11 34 -5 0 -6 -7 -3 -16z"/>
<path d="M121 410 c-1 -15 -6 -31 -12 -37 -8 -8 -5 -14 10 -22 19 -10 21 -9
20 11 -1 13 -5 34 -9 48 l-8 25 -1 -25z"/>
<path d="M1052 400 c-18 -29 -15 -38 13 -32 27 5 33 23 12 40 -9 8 -16 6 -25
-8z"/>
<path d="M246 378 c-12 -39 -26 -141 -24 -171 l2 -35 54 5 54 6 -12 -24 c-7
-13 -26 -37 -41 -53 -16 -16 -34 -44 -40 -63 -12 -37 -35 -46 -25 -10 3 12 6
34 6 49 0 15 7 33 15 42 19 19 19 23 -4 29 -16 4 -19 -3 -25 -47 -11 -94 -9
-106 19 -106 15 0 25 6 25 14 0 8 10 22 22 30 12 9 19 16 14 16 -9 0 30 66 56
94 10 11 26 21 36 22 36 6 111 47 115 65 3 13 0 16 -12 12 -21 -6 -62 -23 -83
-34 -10 -5 -18 -6 -18 -2 1 18 18 34 46 43 l29 8 -27 1 c-15 1 -30 6 -33 11
-10 16 -28 12 -21 -5 3 -9 0 -15 -9 -15 -18 0 -20 -16 -2 -23 9 -4 9 -7 -1
-15 -7 -5 -10 -16 -6 -27 6 -15 4 -17 -17 -12 -13 4 -31 7 -40 7 -32 0 -49 25
-55 78 -5 44 -3 53 13 59 32 12 45 43 17 43 -8 0 -12 5 -9 10 3 6 1 10 -5 10
-6 0 -12 -6 -14 -12z"/>
<path d="M190 314 c0 -28 -3 -35 -15 -30 -8 3 -15 1 -15 -4 0 -6 9 -10 20 -10
17 0 20 7 20 40 0 22 -2 40 -5 40 -3 0 -5 -16 -5 -36z"/>
<path d="M1764 335 c-4 -8 -10 -12 -15 -9 -5 3 -9 0 -9 -5 0 -6 4 -11 9 -11 5
0 12 -15 15 -34 6 -30 11 -34 48 -40 22 -4 43 -4 46 -1 3 3 -2 5 -12 5 -21 0
-66 29 -66 42 0 6 6 5 15 -2 12 -10 15 -10 15 1 0 8 -9 20 -21 27 -12 8 -18
19 -15 28 3 8 3 14 0 14 -2 0 -7 -7 -10 -15z"/>
<path d="M92 308 c-5 -20 -5 -35 1 -39 12 -8 -5 -61 -21 -67 -16 -5 -16 30 0
46 8 8 8 12 1 12 -6 0 -13 -6 -16 -14 -3 -8 -18 -16 -34 -18 l-28 -3 35 -17
c25 -12 30 -18 20 -23 -9 -3 -16 -18 -17 -33 -2 -27 -2 -27 14 6 12 23 22 31
34 27 13 -4 18 2 23 30 4 19 11 35 17 35 5 0 7 -13 4 -28 -4 -27 17 -73 28
-62 6 6 -17 133 -28 163 -11 26 -24 20 -33 -15z"/>
<path d="M841 318 c-12 -20 -15 -56 -4 -44 4 4 8 15 8 24 0 9 7 17 15 18 18 1
90 -37 90 -47 0 -4 12 -10 28 -14 15 -4 21 -10 14 -12 -16 -6 -72 16 -72 28 0
5 -7 6 -16 2 -14 -5 -12 -8 7 -19 l24 -13 -27 -1 c-16 0 -28 5 -28 10 0 6 -12
10 -27 9 -16 0 -22 -3 -15 -6 17 -7 15 -23 -3 -23 -8 0 -15 7 -15 15 0 8 -9
15 -20 15 -14 0 -18 -5 -13 -16 5 -14 1 -16 -30 -10 -25 5 -37 3 -37 -5 0 -8
35 -9 133 -4 160 8 173 11 155 32 -11 14 -10 16 14 11 15 -3 25 -1 22 3 -3 5
-22 9 -43 9 -24 0 -47 8 -61 20 -13 11 -28 20 -34 20 -7 0 -6 3 1 8 8 5 -1 8
-21 8 -22 0 -38 -6 -45 -18z"/>
<path d="M42 314 c-7 -8 -17 -12 -23 -9 -5 4 -9 -1 -9 -10 0 -11 7 -15 23 -13
12 2 22 8 22 13 0 6 4 16 8 23 11 17 -5 14 -21 -4z"/>
<path d="M1686 273 c-11 -29 14 -43 49 -26 l30 14 -34 -5 c-26 -5 -32 -3 -27
9 3 8 1 17 -3 20 -5 3 -12 -3 -15 -12z"/>
<path d="M1035 231 c-3 -6 5 -16 19 -22 14 -7 23 -16 20 -20 -3 -5 3 -9 13 -9
10 0 29 -3 43 -5 14 -3 5 4 -20 15 -25 12 -50 28 -57 36 -7 10 -13 11 -18 5z"/>
<path d="M1677 219 c3 -11 14 -24 25 -30 13 -7 18 -7 14 -1 -3 6 0 12 6 15 7
2 -1 11 -18 20 -31 16 -32 16 -27 -4z"/>
<path d="M2880 215 c0 -12 13 -15 60 -15 71 0 80 15 14 24 -66 9 -74 8 -74 -9z"/>
<path d="M563 186 c0 -11 5 -13 18 -5 10 5 31 7 46 4 23 -4 24 -4 8 4 -32 15
-72 13 -72 -3z"/>
<path d="M425 178 c-11 -6 -29 -21 -41 -34 -12 -13 -24 -21 -28 -19 -3 3 -4 2
-2 -1 2 -3 -2 -21 -10 -40 -8 -19 -10 -34 -5 -34 5 0 11 -6 14 -13 2 -6 3 -4
2 5 -2 10 0 17 4 16 27 -3 61 4 61 13 0 7 -14 10 -35 7 -19 -2 -35 -2 -35 2 1
12 50 60 61 60 7 0 10 3 6 6 -3 4 4 15 16 25 25 21 22 24 -8 7z"/>
<path d="M766 181 c-4 -5 3 -7 14 -4 11 3 20 0 20 -6 0 -6 10 -11 21 -11 18 0
19 2 9 15 -14 16 -56 20 -64 6z"/>
<path d="M463 163 c9 -2 17 -8 17 -11 0 -4 14 -7 30 -7 50 0 34 20 -18 21 -26
1 -39 0 -29 -3z"/>
<path d="M109 147 c6 -8 9 -16 6 -19 -3 -2 2 -5 10 -5 8 0 15 9 15 19 0 12 -7
18 -21 18 -17 0 -19 -3 -10 -13z"/>
<path d="M52 125 c-11 -13 -22 -22 -25 -19 -3 4 -5 -3 -4 -14 1 -16 4 -18 14
-10 7 6 13 17 13 24 0 8 9 14 20 14 11 0 20 7 20 15 0 22 -16 18 -38 -10z"/>
<path d="M2834 139 c3 -16 20 -18 81 -8 l50 7 -62 -2 c-35 -1 -65 2 -67 6 -3
5 -3 3 -2 -3z"/>
<path d="M457 116 c-3 -8 -16 -16 -29 -19 l-23 -4 24 -2 c16 -1 21 -6 18 -16
-9 -21 11 -29 29 -11 14 15 14 16 -3 16 -10 0 -14 4 -8 8 12 9 16 42 5 42 -4
0 -10 -6 -13 -14z"/>
<path d="M105 97 c-5 -7 -11 -19 -13 -27 -3 -11 0 -11 12 0 11 9 16 9 16 1 0
-16 -33 -27 -38 -13 -2 7 -9 12 -15 12 -5 0 -7 -3 -4 -7 4 -3 2 -12 -4 -19 -8
-10 -2 -13 29 -12 36 0 40 3 44 29 3 17 0 29 -6 29 -6 0 -4 5 4 10 13 9 13 10
0 9 -8 0 -19 -5 -25 -12z"/>
<path d="M167 74 c-9 -54 -9 -74 3 -74 14 0 23 61 12 89 -8 23 -9 22 -15 -15z"/>
<path d="M1507 104 c-3 -3 -3 -13 0 -22 4 -10 2 -13 -5 -8 -8 5 -10 2 -6 -8 3
-9 16 -16 28 -16 17 0 18 2 6 10 -13 9 -13 11 0 20 13 8 12 10 -3 10 -10 0
-15 5 -12 10 7 11 2 14 -8 4z"/>
<path d="M1990 99 c0 -5 12 -9 26 -9 14 0 34 -5 45 -10 13 -7 19 -7 19 -1 0
10 -12 14 -72 26 -10 2 -18 -1 -18 -6z"/>
</g>
</svg>
